%TF.GenerationSoftware,KiCad,Pcbnew,10.0.1*%
%TF.CreationDate,2026-06-24T22:20:16+02:00*%
%TF.ProjectId,BB_TRS_635,42425f54-5253-45f3-9633-352e6b696361,1*%
%TF.SameCoordinates,Original*%
%TF.FileFunction,Legend,Top*%
%TF.FilePolarity,Positive*%
%FSLAX46Y46*%
G04 Gerber Fmt 4.6, Leading zero omitted, Abs format (unit mm)*
G04 Created by KiCad (PCBNEW 10.0.1) date 2026-06-24 22:20:16*
%MOMM*%
%LPD*%
G01*
G04 APERTURE LIST*
G04 Aperture macros list*
%AMHorizOval*
0 Thick line with rounded ends*
0 $1 width*
0 $2 $3 position (X,Y) of the first rounded end (center of the circle)*
0 $4 $5 position (X,Y) of the second rounded end (center of the circle)*
0 Add line between two ends*
20,1,$1,$2,$3,$4,$5,0*
0 Add two circle primitives to create the rounded ends*
1,1,$1,$2,$3*
1,1,$1,$4,$5*%
G04 Aperture macros list end*
%ADD10C,0.150000*%
%ADD11C,0.127000*%
%ADD12C,0.200000*%
%ADD13O,3.220000X1.712000*%
%ADD14O,1.712000X3.220000*%
%ADD15HorizOval,1.712000X0.533159X0.533159X-0.533159X-0.533159X0*%
%ADD16R,1.700000X1.700000*%
%ADD17C,1.700000*%
G04 APERTURE END LIST*
D10*
X56450152Y-33838095D02*
X56450152Y-34409523D01*
X55450152Y-34123809D02*
X56450152Y-34123809D01*
X55450152Y-35314285D02*
X55926343Y-34980952D01*
X55450152Y-34742857D02*
X56450152Y-34742857D01*
X56450152Y-34742857D02*
X56450152Y-35123809D01*
X56450152Y-35123809D02*
X56402533Y-35219047D01*
X56402533Y-35219047D02*
X56354914Y-35266666D01*
X56354914Y-35266666D02*
X56259676Y-35314285D01*
X56259676Y-35314285D02*
X56116819Y-35314285D01*
X56116819Y-35314285D02*
X56021581Y-35266666D01*
X56021581Y-35266666D02*
X55973962Y-35219047D01*
X55973962Y-35219047D02*
X55926343Y-35123809D01*
X55926343Y-35123809D02*
X55926343Y-34742857D01*
X55497772Y-35695238D02*
X55450152Y-35838095D01*
X55450152Y-35838095D02*
X55450152Y-36076190D01*
X55450152Y-36076190D02*
X55497772Y-36171428D01*
X55497772Y-36171428D02*
X55545391Y-36219047D01*
X55545391Y-36219047D02*
X55640629Y-36266666D01*
X55640629Y-36266666D02*
X55735867Y-36266666D01*
X55735867Y-36266666D02*
X55831105Y-36219047D01*
X55831105Y-36219047D02*
X55878724Y-36171428D01*
X55878724Y-36171428D02*
X55926343Y-36076190D01*
X55926343Y-36076190D02*
X55973962Y-35885714D01*
X55973962Y-35885714D02*
X56021581Y-35790476D01*
X56021581Y-35790476D02*
X56069200Y-35742857D01*
X56069200Y-35742857D02*
X56164438Y-35695238D01*
X56164438Y-35695238D02*
X56259676Y-35695238D01*
X56259676Y-35695238D02*
X56354914Y-35742857D01*
X56354914Y-35742857D02*
X56402533Y-35790476D01*
X56402533Y-35790476D02*
X56450152Y-35885714D01*
X56450152Y-35885714D02*
X56450152Y-36123809D01*
X56450152Y-36123809D02*
X56402533Y-36266666D01*
X54840208Y-32766667D02*
X54840208Y-32576191D01*
X54840208Y-32576191D02*
X54792589Y-32480953D01*
X54792589Y-32480953D02*
X54744970Y-32433334D01*
X54744970Y-32433334D02*
X54602113Y-32338096D01*
X54602113Y-32338096D02*
X54411637Y-32290477D01*
X54411637Y-32290477D02*
X54030685Y-32290477D01*
X54030685Y-32290477D02*
X53935447Y-32338096D01*
X53935447Y-32338096D02*
X53887828Y-32385715D01*
X53887828Y-32385715D02*
X53840208Y-32480953D01*
X53840208Y-32480953D02*
X53840208Y-32671429D01*
X53840208Y-32671429D02*
X53887828Y-32766667D01*
X53887828Y-32766667D02*
X53935447Y-32814286D01*
X53935447Y-32814286D02*
X54030685Y-32861905D01*
X54030685Y-32861905D02*
X54268780Y-32861905D01*
X54268780Y-32861905D02*
X54364018Y-32814286D01*
X54364018Y-32814286D02*
X54411637Y-32766667D01*
X54411637Y-32766667D02*
X54459256Y-32671429D01*
X54459256Y-32671429D02*
X54459256Y-32480953D01*
X54459256Y-32480953D02*
X54411637Y-32385715D01*
X54411637Y-32385715D02*
X54364018Y-32338096D01*
X54364018Y-32338096D02*
X54268780Y-32290477D01*
X53935447Y-33290477D02*
X53887828Y-33338096D01*
X53887828Y-33338096D02*
X53840208Y-33290477D01*
X53840208Y-33290477D02*
X53887828Y-33242858D01*
X53887828Y-33242858D02*
X53935447Y-33290477D01*
X53935447Y-33290477D02*
X53840208Y-33290477D01*
X54840208Y-33671429D02*
X54840208Y-34290476D01*
X54840208Y-34290476D02*
X54459256Y-33957143D01*
X54459256Y-33957143D02*
X54459256Y-34100000D01*
X54459256Y-34100000D02*
X54411637Y-34195238D01*
X54411637Y-34195238D02*
X54364018Y-34242857D01*
X54364018Y-34242857D02*
X54268780Y-34290476D01*
X54268780Y-34290476D02*
X54030685Y-34290476D01*
X54030685Y-34290476D02*
X53935447Y-34242857D01*
X53935447Y-34242857D02*
X53887828Y-34195238D01*
X53887828Y-34195238D02*
X53840208Y-34100000D01*
X53840208Y-34100000D02*
X53840208Y-33814286D01*
X53840208Y-33814286D02*
X53887828Y-33719048D01*
X53887828Y-33719048D02*
X53935447Y-33671429D01*
X54840208Y-35195238D02*
X54840208Y-34719048D01*
X54840208Y-34719048D02*
X54364018Y-34671429D01*
X54364018Y-34671429D02*
X54411637Y-34719048D01*
X54411637Y-34719048D02*
X54459256Y-34814286D01*
X54459256Y-34814286D02*
X54459256Y-35052381D01*
X54459256Y-35052381D02*
X54411637Y-35147619D01*
X54411637Y-35147619D02*
X54364018Y-35195238D01*
X54364018Y-35195238D02*
X54268780Y-35242857D01*
X54268780Y-35242857D02*
X54030685Y-35242857D01*
X54030685Y-35242857D02*
X53935447Y-35195238D01*
X53935447Y-35195238D02*
X53887828Y-35147619D01*
X53887828Y-35147619D02*
X53840208Y-35052381D01*
X53840208Y-35052381D02*
X53840208Y-34814286D01*
X53840208Y-34814286D02*
X53887828Y-34719048D01*
X53887828Y-34719048D02*
X53935447Y-34671429D01*
X53840208Y-35671429D02*
X54506875Y-35671429D01*
X54411637Y-35671429D02*
X54459256Y-35719048D01*
X54459256Y-35719048D02*
X54506875Y-35814286D01*
X54506875Y-35814286D02*
X54506875Y-35957143D01*
X54506875Y-35957143D02*
X54459256Y-36052381D01*
X54459256Y-36052381D02*
X54364018Y-36100000D01*
X54364018Y-36100000D02*
X53840208Y-36100000D01*
X54364018Y-36100000D02*
X54459256Y-36147619D01*
X54459256Y-36147619D02*
X54506875Y-36242857D01*
X54506875Y-36242857D02*
X54506875Y-36385714D01*
X54506875Y-36385714D02*
X54459256Y-36480953D01*
X54459256Y-36480953D02*
X54364018Y-36528572D01*
X54364018Y-36528572D02*
X53840208Y-36528572D01*
X53840208Y-37004762D02*
X54506875Y-37004762D01*
X54411637Y-37004762D02*
X54459256Y-37052381D01*
X54459256Y-37052381D02*
X54506875Y-37147619D01*
X54506875Y-37147619D02*
X54506875Y-37290476D01*
X54506875Y-37290476D02*
X54459256Y-37385714D01*
X54459256Y-37385714D02*
X54364018Y-37433333D01*
X54364018Y-37433333D02*
X53840208Y-37433333D01*
X54364018Y-37433333D02*
X54459256Y-37480952D01*
X54459256Y-37480952D02*
X54506875Y-37576190D01*
X54506875Y-37576190D02*
X54506875Y-37719047D01*
X54506875Y-37719047D02*
X54459256Y-37814286D01*
X54459256Y-37814286D02*
X54364018Y-37861905D01*
X54364018Y-37861905D02*
X53840208Y-37861905D01*
%TO.C,J3*%
D11*
X63000000Y-28400000D02*
X63000000Y-41800000D01*
X61800000Y-43000000D02*
X48400000Y-43000000D01*
D10*
X55100000Y-39300000D02*
X57450000Y-39300000D01*
X55100000Y-39300000D02*
X52750000Y-39300000D01*
X55100000Y-30900000D02*
X57450000Y-30900000D01*
X55100000Y-30900000D02*
X52750000Y-30900000D01*
D11*
X51150000Y-27200000D02*
X61800000Y-27200000D01*
X47200000Y-41800000D02*
X47200000Y-31150000D01*
X47200000Y-31150000D02*
X51150000Y-27200000D01*
X63000000Y-41800000D02*
G75*
G02*
X61800000Y-43000000I-1200000J0D01*
G01*
X61800000Y-27200000D02*
G75*
G02*
X63000000Y-28400000I0J-1200000D01*
G01*
D10*
X59900000Y-35100000D02*
G75*
G02*
X57443778Y-39288879I-4800000J0D01*
G01*
X57443778Y-30911121D02*
G75*
G02*
X59900000Y-35100000I-2343778J-4188879D01*
G01*
X52756222Y-39288879D02*
G75*
G02*
X50300000Y-35100000I2343781J4188881D01*
G01*
X50300000Y-35100000D02*
G75*
G02*
X52756222Y-30911121I4800003J-2D01*
G01*
D11*
X48400000Y-43000000D02*
G75*
G02*
X47200000Y-41800000I0J1200000D01*
G01*
D12*
X48800000Y-28800000D02*
G75*
G02*
X48600000Y-28800000I-100000J0D01*
G01*
X48600000Y-28800000D02*
G75*
G02*
X48800000Y-28800000I100000J0D01*
G01*
%TD*%
%LPC*%
D13*
%TO.C,J3*%
X54600000Y-41600000D03*
D14*
X48600000Y-37600000D03*
D15*
X50504000Y-30504000D03*
D14*
X61600000Y-34600000D03*
D13*
X57600000Y-28600000D03*
%TD*%
D16*
%TO.C,J1*%
X44920000Y-30000000D03*
D17*
X44920000Y-32540000D03*
X44920000Y-35080000D03*
X44920000Y-37620000D03*
X44920000Y-40160000D03*
%TD*%
D16*
%TO.C,J2*%
X65240000Y-30000000D03*
D17*
X65240000Y-32540000D03*
X65240000Y-35080000D03*
X65240000Y-37620000D03*
X65240000Y-40160000D03*
%TD*%
%LPD*%
M02*
