M48
; DRILL file KiCad 10.0.1 date 2026-06-24T22:20:26
; FORMAT={-:-/ absolute / metric / decimal}
; #@! TF.CreationDate,2026-06-24T22:20:26+02:00
; #@! TF.GenerationSoftware,Kicad,Pcbnew,10.0.1
; #@! TF.FileFunction,Plated,1,2,PTH
FMAT,2
METRIC
; #@! TA.AperFunction,Plated,PTH,ComponentDrill
T1C1.000
%
G90
G05
T1
X44.92Y-30.0
X44.92Y-32.54
X44.92Y-35.08
X44.92Y-37.62
X44.92Y-40.16
X65.24Y-30.0
X65.24Y-32.54
X65.24Y-35.08
X65.24Y-37.62
X65.24Y-40.16
T1
G00X48.6Y-38.35
M15
G01X48.6Y-36.85
M16
G05
G00X49.974Y-31.034
M15
G01X51.034Y-29.974
M16
G05
G00X55.35Y-41.6
M15
G01X53.85Y-41.6
M16
G05
G00X58.35Y-28.6
M15
G01X56.85Y-28.6
M16
G05
G00X61.6Y-35.35
M15
G01X61.6Y-33.85
M16
G05
M30
