%TF.GenerationSoftware,KiCad,Pcbnew,10.0.1*%
%TF.CreationDate,2026-06-24T22:20:26+02:00*%
%TF.ProjectId,BB_TRS_635,42425f54-5253-45f3-9633-352e6b696361,1*%
%TF.SameCoordinates,Original*%
%TF.FileFunction,Drillmap*%
%TF.FilePolarity,Positive*%
%FSLAX45Y45*%
G04 Gerber Fmt 4.5, Leading zero omitted, Abs format (unit mm)*
G04 Created by KiCad (PCBNEW 10.0.1) date 2026-06-24 22:20:26*
%MOMM*%
%LPD*%
G01*
G04 APERTURE LIST*
%ADD10C,0.050000*%
%ADD11C,0.200000*%
G04 APERTURE END LIST*
D10*
X4335000Y-2655000D02*
X6685000Y-2655000D01*
X6685000Y-4355000D01*
X4335000Y-4355000D01*
X4335000Y-2655000D01*
D11*
X4593277Y-4668984D02*
X4593277Y-4468984D01*
X4593277Y-4468984D02*
X4640896Y-4468984D01*
X4640896Y-4468984D02*
X4669467Y-4478508D01*
X4669467Y-4478508D02*
X4688515Y-4497555D01*
X4688515Y-4497555D02*
X4698039Y-4516603D01*
X4698039Y-4516603D02*
X4707563Y-4554698D01*
X4707563Y-4554698D02*
X4707563Y-4583270D01*
X4707563Y-4583270D02*
X4698039Y-4621365D01*
X4698039Y-4621365D02*
X4688515Y-4640412D01*
X4688515Y-4640412D02*
X4669467Y-4659460D01*
X4669467Y-4659460D02*
X4640896Y-4668984D01*
X4640896Y-4668984D02*
X4593277Y-4668984D01*
X4793277Y-4668984D02*
X4793277Y-4535650D01*
X4793277Y-4573746D02*
X4802801Y-4554698D01*
X4802801Y-4554698D02*
X4812324Y-4545174D01*
X4812324Y-4545174D02*
X4831372Y-4535650D01*
X4831372Y-4535650D02*
X4850420Y-4535650D01*
X4917086Y-4668984D02*
X4917086Y-4535650D01*
X4917086Y-4468984D02*
X4907563Y-4478508D01*
X4907563Y-4478508D02*
X4917086Y-4488031D01*
X4917086Y-4488031D02*
X4926610Y-4478508D01*
X4926610Y-4478508D02*
X4917086Y-4468984D01*
X4917086Y-4468984D02*
X4917086Y-4488031D01*
X5040896Y-4668984D02*
X5021848Y-4659460D01*
X5021848Y-4659460D02*
X5012324Y-4640412D01*
X5012324Y-4640412D02*
X5012324Y-4468984D01*
X5145658Y-4668984D02*
X5126610Y-4659460D01*
X5126610Y-4659460D02*
X5117086Y-4640412D01*
X5117086Y-4640412D02*
X5117086Y-4468984D01*
X5374229Y-4668984D02*
X5374229Y-4468984D01*
X5374229Y-4468984D02*
X5440896Y-4611841D01*
X5440896Y-4611841D02*
X5507563Y-4468984D01*
X5507563Y-4468984D02*
X5507563Y-4668984D01*
X5688515Y-4668984D02*
X5688515Y-4564222D01*
X5688515Y-4564222D02*
X5678991Y-4545174D01*
X5678991Y-4545174D02*
X5659943Y-4535650D01*
X5659943Y-4535650D02*
X5621848Y-4535650D01*
X5621848Y-4535650D02*
X5602801Y-4545174D01*
X5688515Y-4659460D02*
X5669467Y-4668984D01*
X5669467Y-4668984D02*
X5621848Y-4668984D01*
X5621848Y-4668984D02*
X5602801Y-4659460D01*
X5602801Y-4659460D02*
X5593277Y-4640412D01*
X5593277Y-4640412D02*
X5593277Y-4621365D01*
X5593277Y-4621365D02*
X5602801Y-4602317D01*
X5602801Y-4602317D02*
X5621848Y-4592793D01*
X5621848Y-4592793D02*
X5669467Y-4592793D01*
X5669467Y-4592793D02*
X5688515Y-4583270D01*
X5783753Y-4535650D02*
X5783753Y-4735650D01*
X5783753Y-4545174D02*
X5802801Y-4535650D01*
X5802801Y-4535650D02*
X5840896Y-4535650D01*
X5840896Y-4535650D02*
X5859943Y-4545174D01*
X5859943Y-4545174D02*
X5869467Y-4554698D01*
X5869467Y-4554698D02*
X5878991Y-4573746D01*
X5878991Y-4573746D02*
X5878991Y-4630889D01*
X5878991Y-4630889D02*
X5869467Y-4649936D01*
X5869467Y-4649936D02*
X5859943Y-4659460D01*
X5859943Y-4659460D02*
X5840896Y-4668984D01*
X5840896Y-4668984D02*
X5802801Y-4668984D01*
X5802801Y-4668984D02*
X5783753Y-4659460D01*
X5964705Y-4649936D02*
X5974229Y-4659460D01*
X5974229Y-4659460D02*
X5964705Y-4668984D01*
X5964705Y-4668984D02*
X5955182Y-4659460D01*
X5955182Y-4659460D02*
X5964705Y-4649936D01*
X5964705Y-4649936D02*
X5964705Y-4668984D01*
X5964705Y-4545174D02*
X5974229Y-4554698D01*
X5974229Y-4554698D02*
X5964705Y-4564222D01*
X5964705Y-4564222D02*
X5955182Y-4554698D01*
X5955182Y-4554698D02*
X5964705Y-4545174D01*
X5964705Y-4545174D02*
X5964705Y-4564222D01*
M02*
