%TF.GenerationSoftware,KiCad,Pcbnew,10.0.1*%
%TF.CreationDate,2026-06-23T21:41:35+02:00*%
%TF.ProjectId,BB_helper_SSOP_10,42425f68-656c-4706-9572-5f53534f505f,1*%
%TF.SameCoordinates,Original*%
%TF.FileFunction,Copper,L1,Top*%
%TF.FilePolarity,Positive*%
%FSLAX46Y46*%
G04 Gerber Fmt 4.6, Leading zero omitted, Abs format (unit mm)*
G04 Created by KiCad (PCBNEW 10.0.1) date 2026-06-23 21:41:35*
%MOMM*%
%LPD*%
G01*
G04 APERTURE LIST*
%TA.AperFunction,SMDPad,CuDef*%
%ADD10R,1.100000X0.510000*%
%TD*%
%TA.AperFunction,ComponentPad*%
%ADD11R,1.700000X1.700000*%
%TD*%
%TA.AperFunction,ComponentPad*%
%ADD12C,1.700000*%
%TD*%
%TA.AperFunction,Conductor*%
%ADD13C,0.200000*%
%TD*%
G04 APERTURE END LIST*
D10*
%TO.P,J3,1,Pin_1_1*%
%TO.N,Net-(J1-Pin_1)*%
X57400000Y-34500000D03*
%TO.P,J3,2,Pin_2_2*%
%TO.N,Net-(J1-Pin_2)*%
X57400000Y-35500000D03*
%TO.P,J3,3,Pin_3_3*%
%TO.N,Net-(J1-Pin_3)*%
X57400000Y-36500000D03*
%TO.P,J3,4,Pin_4_4*%
%TO.N,Net-(J1-Pin_4)*%
X57400000Y-37500000D03*
%TO.P,J3,5,Pin_5_5*%
%TO.N,Net-(J1-Pin_5)*%
X57400000Y-38500000D03*
%TO.P,J3,6,Pin_6_6*%
%TO.N,Net-(J2-Pin_5)*%
X62500000Y-38500000D03*
%TO.P,J3,7,Pin_7_7*%
%TO.N,Net-(J2-Pin_4)*%
X62500000Y-37500000D03*
%TO.P,J3,8,Pin_8_8*%
%TO.N,Net-(J2-Pin_3)*%
X62500000Y-36500000D03*
%TO.P,J3,9,Pin_9_9*%
%TO.N,Net-(J2-Pin_2)*%
X62500000Y-35500000D03*
%TO.P,J3,10,Pin_10_10*%
%TO.N,Net-(J2-Pin_1)*%
X62500000Y-34500000D03*
%TD*%
D11*
%TO.P,J1,1,Pin_1_1*%
%TO.N,Net-(J1-Pin_1)*%
X53600000Y-31360000D03*
D12*
%TO.P,J1,2,Pin_2_2*%
%TO.N,Net-(J1-Pin_2)*%
X53600000Y-33900000D03*
%TO.P,J1,3,Pin_3_3*%
%TO.N,Net-(J1-Pin_3)*%
X53600000Y-36440000D03*
%TO.P,J1,4,Pin_4_4*%
%TO.N,Net-(J1-Pin_4)*%
X53600000Y-38980000D03*
%TO.P,J1,5,Pin_5_5*%
%TO.N,Net-(J1-Pin_5)*%
X53600000Y-41520000D03*
%TD*%
%TO.P,J2,1,Pin_1_1*%
%TO.N,Net-(J2-Pin_1)*%
X66300000Y-31360000D03*
%TO.P,J2,2,Pin_2_2*%
%TO.N,Net-(J2-Pin_2)*%
X66300000Y-33900000D03*
%TO.P,J2,3,Pin_3_3*%
%TO.N,Net-(J2-Pin_3)*%
X66300000Y-36440000D03*
%TO.P,J2,4,Pin_4_4*%
%TO.N,Net-(J2-Pin_4)*%
X66300000Y-38980000D03*
%TO.P,J2,5,Pin_5_5*%
%TO.N,Net-(J2-Pin_5)*%
X66300000Y-41520000D03*
%TD*%
%TO.N,Net-(J1-Pin_5)*%
D13*
X56620000Y-38500000D02*
X57450000Y-38500000D01*
X53600000Y-41520000D02*
X56620000Y-38500000D01*
%TO.N,Net-(J1-Pin_3)*%
X53600000Y-36440000D02*
X57390000Y-36440000D01*
X57390000Y-36440000D02*
X57450000Y-36500000D01*
%TO.N,Net-(J1-Pin_1)*%
X57450000Y-34500000D02*
X56740000Y-34500000D01*
X56740000Y-34500000D02*
X53600000Y-31360000D01*
%TO.N,Net-(J1-Pin_2)*%
X53600000Y-33900000D02*
X55200000Y-35500000D01*
X55200000Y-35500000D02*
X57450000Y-35500000D01*
%TO.N,Net-(J1-Pin_4)*%
X55080000Y-37500000D02*
X57450000Y-37500000D01*
X53600000Y-38980000D02*
X55080000Y-37500000D01*
%TO.N,Net-(J2-Pin_4)*%
X62500000Y-37500000D02*
X64820000Y-37500000D01*
X64820000Y-37500000D02*
X66300000Y-38980000D01*
%TO.N,Net-(J2-Pin_5)*%
X62500000Y-38500000D02*
X63280000Y-38500000D01*
X63280000Y-38500000D02*
X66300000Y-41520000D01*
%TO.N,Net-(J2-Pin_1)*%
X63160000Y-34500000D02*
X66300000Y-31360000D01*
X62550000Y-34500000D02*
X63160000Y-34500000D01*
%TO.N,Net-(J2-Pin_3)*%
X66240000Y-36500000D02*
X66300000Y-36440000D01*
X62500000Y-36500000D02*
X66240000Y-36500000D01*
%TO.N,Net-(J2-Pin_2)*%
X62500000Y-35500000D02*
X64700000Y-35500000D01*
X64700000Y-35500000D02*
X66300000Y-33900000D01*
%TD*%
M02*
