%TF.GenerationSoftware,KiCad,Pcbnew,10.0.1*%
%TF.CreationDate,2026-06-23T21:41:39+02:00*%
%TF.ProjectId,BB_helper_SSOP_10,42425f68-656c-4706-9572-5f53534f505f,1*%
%TF.SameCoordinates,Original*%
%TF.FileFunction,Drillmap*%
%TF.FilePolarity,Positive*%
%FSLAX45Y45*%
G04 Gerber Fmt 4.5, Leading zero omitted, Abs format (unit mm)*
G04 Created by KiCad (PCBNEW 10.0.1) date 2026-06-23 21:41:39*
%MOMM*%
%LPD*%
G01*
G04 APERTURE LIST*
%ADD10C,0.050000*%
%ADD11C,0.200000*%
%ADD12C,0.100000*%
G04 APERTURE END LIST*
D10*
X5220000Y-3000000D02*
X6770000Y-3000000D01*
X6770000Y-4300000D01*
X5220000Y-4300000D01*
X5220000Y-3000000D01*
D11*
D12*
X5310000Y-3086000D02*
X5410000Y-3186000D01*
X5410000Y-3086000D02*
X5310000Y-3186000D01*
X5310000Y-3340000D02*
X5410000Y-3440000D01*
X5410000Y-3340000D02*
X5310000Y-3440000D01*
X5310000Y-3594000D02*
X5410000Y-3694000D01*
X5410000Y-3594000D02*
X5310000Y-3694000D01*
X5310000Y-3848000D02*
X5410000Y-3948000D01*
X5410000Y-3848000D02*
X5310000Y-3948000D01*
X5310000Y-4102000D02*
X5410000Y-4202000D01*
X5410000Y-4102000D02*
X5310000Y-4202000D01*
X6580000Y-3086000D02*
X6680000Y-3186000D01*
X6680000Y-3086000D02*
X6580000Y-3186000D01*
X6580000Y-3340000D02*
X6680000Y-3440000D01*
X6680000Y-3340000D02*
X6580000Y-3440000D01*
X6580000Y-3594000D02*
X6680000Y-3694000D01*
X6680000Y-3594000D02*
X6580000Y-3694000D01*
X6580000Y-3848000D02*
X6680000Y-3948000D01*
X6680000Y-3848000D02*
X6580000Y-3948000D01*
X6580000Y-4102000D02*
X6680000Y-4202000D01*
X6680000Y-4102000D02*
X6580000Y-4202000D01*
D11*
X5478277Y-4613984D02*
X5478277Y-4413984D01*
X5478277Y-4413984D02*
X5525896Y-4413984D01*
X5525896Y-4413984D02*
X5554467Y-4423508D01*
X5554467Y-4423508D02*
X5573515Y-4442555D01*
X5573515Y-4442555D02*
X5583039Y-4461603D01*
X5583039Y-4461603D02*
X5592562Y-4499698D01*
X5592562Y-4499698D02*
X5592562Y-4528269D01*
X5592562Y-4528269D02*
X5583039Y-4566365D01*
X5583039Y-4566365D02*
X5573515Y-4585412D01*
X5573515Y-4585412D02*
X5554467Y-4604460D01*
X5554467Y-4604460D02*
X5525896Y-4613984D01*
X5525896Y-4613984D02*
X5478277Y-4613984D01*
X5678277Y-4613984D02*
X5678277Y-4480650D01*
X5678277Y-4518746D02*
X5687801Y-4499698D01*
X5687801Y-4499698D02*
X5697324Y-4490174D01*
X5697324Y-4490174D02*
X5716372Y-4480650D01*
X5716372Y-4480650D02*
X5735420Y-4480650D01*
X5802086Y-4613984D02*
X5802086Y-4480650D01*
X5802086Y-4413984D02*
X5792562Y-4423508D01*
X5792562Y-4423508D02*
X5802086Y-4433031D01*
X5802086Y-4433031D02*
X5811610Y-4423508D01*
X5811610Y-4423508D02*
X5802086Y-4413984D01*
X5802086Y-4413984D02*
X5802086Y-4433031D01*
X5925896Y-4613984D02*
X5906848Y-4604460D01*
X5906848Y-4604460D02*
X5897324Y-4585412D01*
X5897324Y-4585412D02*
X5897324Y-4413984D01*
X6030658Y-4613984D02*
X6011610Y-4604460D01*
X6011610Y-4604460D02*
X6002086Y-4585412D01*
X6002086Y-4585412D02*
X6002086Y-4413984D01*
X6259229Y-4613984D02*
X6259229Y-4413984D01*
X6259229Y-4413984D02*
X6325896Y-4556841D01*
X6325896Y-4556841D02*
X6392562Y-4413984D01*
X6392562Y-4413984D02*
X6392562Y-4613984D01*
X6573515Y-4613984D02*
X6573515Y-4509222D01*
X6573515Y-4509222D02*
X6563991Y-4490174D01*
X6563991Y-4490174D02*
X6544943Y-4480650D01*
X6544943Y-4480650D02*
X6506848Y-4480650D01*
X6506848Y-4480650D02*
X6487801Y-4490174D01*
X6573515Y-4604460D02*
X6554467Y-4613984D01*
X6554467Y-4613984D02*
X6506848Y-4613984D01*
X6506848Y-4613984D02*
X6487801Y-4604460D01*
X6487801Y-4604460D02*
X6478277Y-4585412D01*
X6478277Y-4585412D02*
X6478277Y-4566365D01*
X6478277Y-4566365D02*
X6487801Y-4547317D01*
X6487801Y-4547317D02*
X6506848Y-4537793D01*
X6506848Y-4537793D02*
X6554467Y-4537793D01*
X6554467Y-4537793D02*
X6573515Y-4528269D01*
X6668753Y-4480650D02*
X6668753Y-4680650D01*
X6668753Y-4490174D02*
X6687801Y-4480650D01*
X6687801Y-4480650D02*
X6725896Y-4480650D01*
X6725896Y-4480650D02*
X6744943Y-4490174D01*
X6744943Y-4490174D02*
X6754467Y-4499698D01*
X6754467Y-4499698D02*
X6763991Y-4518746D01*
X6763991Y-4518746D02*
X6763991Y-4575888D01*
X6763991Y-4575888D02*
X6754467Y-4594936D01*
X6754467Y-4594936D02*
X6744943Y-4604460D01*
X6744943Y-4604460D02*
X6725896Y-4613984D01*
X6725896Y-4613984D02*
X6687801Y-4613984D01*
X6687801Y-4613984D02*
X6668753Y-4604460D01*
X6849705Y-4594936D02*
X6859229Y-4604460D01*
X6859229Y-4604460D02*
X6849705Y-4613984D01*
X6849705Y-4613984D02*
X6840182Y-4604460D01*
X6840182Y-4604460D02*
X6849705Y-4594936D01*
X6849705Y-4594936D02*
X6849705Y-4613984D01*
X6849705Y-4490174D02*
X6859229Y-4499698D01*
X6859229Y-4499698D02*
X6849705Y-4509222D01*
X6849705Y-4509222D02*
X6840182Y-4499698D01*
X6840182Y-4499698D02*
X6849705Y-4490174D01*
X6849705Y-4490174D02*
X6849705Y-4509222D01*
D12*
X5117500Y-4892500D02*
X5217500Y-4992500D01*
X5217500Y-4892500D02*
X5117500Y-4992500D01*
D11*
X5583039Y-5033984D02*
X5468753Y-5033984D01*
X5525896Y-5033984D02*
X5525896Y-4833984D01*
X5525896Y-4833984D02*
X5506848Y-4862555D01*
X5506848Y-4862555D02*
X5487801Y-4881603D01*
X5487801Y-4881603D02*
X5468753Y-4891127D01*
X5678277Y-5024460D02*
X5678277Y-5033984D01*
X5678277Y-5033984D02*
X5668753Y-5053031D01*
X5668753Y-5053031D02*
X5659229Y-5062555D01*
X5802086Y-4833984D02*
X5821134Y-4833984D01*
X5821134Y-4833984D02*
X5840182Y-4843508D01*
X5840182Y-4843508D02*
X5849705Y-4853031D01*
X5849705Y-4853031D02*
X5859229Y-4872079D01*
X5859229Y-4872079D02*
X5868753Y-4910174D01*
X5868753Y-4910174D02*
X5868753Y-4957793D01*
X5868753Y-4957793D02*
X5859229Y-4995888D01*
X5859229Y-4995888D02*
X5849705Y-5014936D01*
X5849705Y-5014936D02*
X5840182Y-5024460D01*
X5840182Y-5024460D02*
X5821134Y-5033984D01*
X5821134Y-5033984D02*
X5802086Y-5033984D01*
X5802086Y-5033984D02*
X5783039Y-5024460D01*
X5783039Y-5024460D02*
X5773515Y-5014936D01*
X5773515Y-5014936D02*
X5763991Y-4995888D01*
X5763991Y-4995888D02*
X5754467Y-4957793D01*
X5754467Y-4957793D02*
X5754467Y-4910174D01*
X5754467Y-4910174D02*
X5763991Y-4872079D01*
X5763991Y-4872079D02*
X5773515Y-4853031D01*
X5773515Y-4853031D02*
X5783039Y-4843508D01*
X5783039Y-4843508D02*
X5802086Y-4833984D01*
X5992562Y-4833984D02*
X6011610Y-4833984D01*
X6011610Y-4833984D02*
X6030658Y-4843508D01*
X6030658Y-4843508D02*
X6040182Y-4853031D01*
X6040182Y-4853031D02*
X6049705Y-4872079D01*
X6049705Y-4872079D02*
X6059229Y-4910174D01*
X6059229Y-4910174D02*
X6059229Y-4957793D01*
X6059229Y-4957793D02*
X6049705Y-4995888D01*
X6049705Y-4995888D02*
X6040182Y-5014936D01*
X6040182Y-5014936D02*
X6030658Y-5024460D01*
X6030658Y-5024460D02*
X6011610Y-5033984D01*
X6011610Y-5033984D02*
X5992562Y-5033984D01*
X5992562Y-5033984D02*
X5973515Y-5024460D01*
X5973515Y-5024460D02*
X5963991Y-5014936D01*
X5963991Y-5014936D02*
X5954467Y-4995888D01*
X5954467Y-4995888D02*
X5944943Y-4957793D01*
X5944943Y-4957793D02*
X5944943Y-4910174D01*
X5944943Y-4910174D02*
X5954467Y-4872079D01*
X5954467Y-4872079D02*
X5963991Y-4853031D01*
X5963991Y-4853031D02*
X5973515Y-4843508D01*
X5973515Y-4843508D02*
X5992562Y-4833984D01*
X6183039Y-4833984D02*
X6202086Y-4833984D01*
X6202086Y-4833984D02*
X6221134Y-4843508D01*
X6221134Y-4843508D02*
X6230658Y-4853031D01*
X6230658Y-4853031D02*
X6240182Y-4872079D01*
X6240182Y-4872079D02*
X6249705Y-4910174D01*
X6249705Y-4910174D02*
X6249705Y-4957793D01*
X6249705Y-4957793D02*
X6240182Y-4995888D01*
X6240182Y-4995888D02*
X6230658Y-5014936D01*
X6230658Y-5014936D02*
X6221134Y-5024460D01*
X6221134Y-5024460D02*
X6202086Y-5033984D01*
X6202086Y-5033984D02*
X6183039Y-5033984D01*
X6183039Y-5033984D02*
X6163991Y-5024460D01*
X6163991Y-5024460D02*
X6154467Y-5014936D01*
X6154467Y-5014936D02*
X6144943Y-4995888D01*
X6144943Y-4995888D02*
X6135420Y-4957793D01*
X6135420Y-4957793D02*
X6135420Y-4910174D01*
X6135420Y-4910174D02*
X6144943Y-4872079D01*
X6144943Y-4872079D02*
X6154467Y-4853031D01*
X6154467Y-4853031D02*
X6163991Y-4843508D01*
X6163991Y-4843508D02*
X6183039Y-4833984D01*
X6335420Y-5033984D02*
X6335420Y-4900650D01*
X6335420Y-4919698D02*
X6344943Y-4910174D01*
X6344943Y-4910174D02*
X6363991Y-4900650D01*
X6363991Y-4900650D02*
X6392563Y-4900650D01*
X6392563Y-4900650D02*
X6411610Y-4910174D01*
X6411610Y-4910174D02*
X6421134Y-4929222D01*
X6421134Y-4929222D02*
X6421134Y-5033984D01*
X6421134Y-4929222D02*
X6430658Y-4910174D01*
X6430658Y-4910174D02*
X6449705Y-4900650D01*
X6449705Y-4900650D02*
X6478277Y-4900650D01*
X6478277Y-4900650D02*
X6497324Y-4910174D01*
X6497324Y-4910174D02*
X6506848Y-4929222D01*
X6506848Y-4929222D02*
X6506848Y-5033984D01*
X6602086Y-5033984D02*
X6602086Y-4900650D01*
X6602086Y-4919698D02*
X6611610Y-4910174D01*
X6611610Y-4910174D02*
X6630658Y-4900650D01*
X6630658Y-4900650D02*
X6659229Y-4900650D01*
X6659229Y-4900650D02*
X6678277Y-4910174D01*
X6678277Y-4910174D02*
X6687801Y-4929222D01*
X6687801Y-4929222D02*
X6687801Y-5033984D01*
X6687801Y-4929222D02*
X6697324Y-4910174D01*
X6697324Y-4910174D02*
X6716372Y-4900650D01*
X6716372Y-4900650D02*
X6744943Y-4900650D01*
X6744943Y-4900650D02*
X6763991Y-4910174D01*
X6763991Y-4910174D02*
X6773515Y-4929222D01*
X6773515Y-4929222D02*
X6773515Y-5033984D01*
X7163991Y-4824460D02*
X6992563Y-5081603D01*
X7421134Y-4833984D02*
X7440182Y-4833984D01*
X7440182Y-4833984D02*
X7459229Y-4843508D01*
X7459229Y-4843508D02*
X7468753Y-4853031D01*
X7468753Y-4853031D02*
X7478277Y-4872079D01*
X7478277Y-4872079D02*
X7487801Y-4910174D01*
X7487801Y-4910174D02*
X7487801Y-4957793D01*
X7487801Y-4957793D02*
X7478277Y-4995888D01*
X7478277Y-4995888D02*
X7468753Y-5014936D01*
X7468753Y-5014936D02*
X7459229Y-5024460D01*
X7459229Y-5024460D02*
X7440182Y-5033984D01*
X7440182Y-5033984D02*
X7421134Y-5033984D01*
X7421134Y-5033984D02*
X7402086Y-5024460D01*
X7402086Y-5024460D02*
X7392563Y-5014936D01*
X7392563Y-5014936D02*
X7383039Y-4995888D01*
X7383039Y-4995888D02*
X7373515Y-4957793D01*
X7373515Y-4957793D02*
X7373515Y-4910174D01*
X7373515Y-4910174D02*
X7383039Y-4872079D01*
X7383039Y-4872079D02*
X7392563Y-4853031D01*
X7392563Y-4853031D02*
X7402086Y-4843508D01*
X7402086Y-4843508D02*
X7421134Y-4833984D01*
X7583039Y-5024460D02*
X7583039Y-5033984D01*
X7583039Y-5033984D02*
X7573515Y-5053031D01*
X7573515Y-5053031D02*
X7563991Y-5062555D01*
X7706848Y-4833984D02*
X7725896Y-4833984D01*
X7725896Y-4833984D02*
X7744944Y-4843508D01*
X7744944Y-4843508D02*
X7754467Y-4853031D01*
X7754467Y-4853031D02*
X7763991Y-4872079D01*
X7763991Y-4872079D02*
X7773515Y-4910174D01*
X7773515Y-4910174D02*
X7773515Y-4957793D01*
X7773515Y-4957793D02*
X7763991Y-4995888D01*
X7763991Y-4995888D02*
X7754467Y-5014936D01*
X7754467Y-5014936D02*
X7744944Y-5024460D01*
X7744944Y-5024460D02*
X7725896Y-5033984D01*
X7725896Y-5033984D02*
X7706848Y-5033984D01*
X7706848Y-5033984D02*
X7687801Y-5024460D01*
X7687801Y-5024460D02*
X7678277Y-5014936D01*
X7678277Y-5014936D02*
X7668753Y-4995888D01*
X7668753Y-4995888D02*
X7659229Y-4957793D01*
X7659229Y-4957793D02*
X7659229Y-4910174D01*
X7659229Y-4910174D02*
X7668753Y-4872079D01*
X7668753Y-4872079D02*
X7678277Y-4853031D01*
X7678277Y-4853031D02*
X7687801Y-4843508D01*
X7687801Y-4843508D02*
X7706848Y-4833984D01*
X7840182Y-4833984D02*
X7963991Y-4833984D01*
X7963991Y-4833984D02*
X7897325Y-4910174D01*
X7897325Y-4910174D02*
X7925896Y-4910174D01*
X7925896Y-4910174D02*
X7944944Y-4919698D01*
X7944944Y-4919698D02*
X7954467Y-4929222D01*
X7954467Y-4929222D02*
X7963991Y-4948269D01*
X7963991Y-4948269D02*
X7963991Y-4995888D01*
X7963991Y-4995888D02*
X7954467Y-5014936D01*
X7954467Y-5014936D02*
X7944944Y-5024460D01*
X7944944Y-5024460D02*
X7925896Y-5033984D01*
X7925896Y-5033984D02*
X7868753Y-5033984D01*
X7868753Y-5033984D02*
X7849706Y-5024460D01*
X7849706Y-5024460D02*
X7840182Y-5014936D01*
X8059229Y-5033984D02*
X8097325Y-5033984D01*
X8097325Y-5033984D02*
X8116372Y-5024460D01*
X8116372Y-5024460D02*
X8125896Y-5014936D01*
X8125896Y-5014936D02*
X8144944Y-4986365D01*
X8144944Y-4986365D02*
X8154467Y-4948269D01*
X8154467Y-4948269D02*
X8154467Y-4872079D01*
X8154467Y-4872079D02*
X8144944Y-4853031D01*
X8144944Y-4853031D02*
X8135420Y-4843508D01*
X8135420Y-4843508D02*
X8116372Y-4833984D01*
X8116372Y-4833984D02*
X8078277Y-4833984D01*
X8078277Y-4833984D02*
X8059229Y-4843508D01*
X8059229Y-4843508D02*
X8049706Y-4853031D01*
X8049706Y-4853031D02*
X8040182Y-4872079D01*
X8040182Y-4872079D02*
X8040182Y-4919698D01*
X8040182Y-4919698D02*
X8049706Y-4938746D01*
X8049706Y-4938746D02*
X8059229Y-4948269D01*
X8059229Y-4948269D02*
X8078277Y-4957793D01*
X8078277Y-4957793D02*
X8116372Y-4957793D01*
X8116372Y-4957793D02*
X8135420Y-4948269D01*
X8135420Y-4948269D02*
X8144944Y-4938746D01*
X8144944Y-4938746D02*
X8154467Y-4919698D01*
X8325896Y-4900650D02*
X8325896Y-5033984D01*
X8278277Y-4824460D02*
X8230658Y-4967317D01*
X8230658Y-4967317D02*
X8354467Y-4967317D01*
X8421134Y-4833984D02*
X8421134Y-4872079D01*
X8497325Y-4833984D02*
X8497325Y-4872079D01*
X8792563Y-5110174D02*
X8783039Y-5100650D01*
X8783039Y-5100650D02*
X8763991Y-5072079D01*
X8763991Y-5072079D02*
X8754468Y-5053031D01*
X8754468Y-5053031D02*
X8744944Y-5024460D01*
X8744944Y-5024460D02*
X8735420Y-4976841D01*
X8735420Y-4976841D02*
X8735420Y-4938746D01*
X8735420Y-4938746D02*
X8744944Y-4891127D01*
X8744944Y-4891127D02*
X8754468Y-4862555D01*
X8754468Y-4862555D02*
X8763991Y-4843508D01*
X8763991Y-4843508D02*
X8783039Y-4814936D01*
X8783039Y-4814936D02*
X8792563Y-4805412D01*
X8973515Y-5033984D02*
X8859230Y-5033984D01*
X8916372Y-5033984D02*
X8916372Y-4833984D01*
X8916372Y-4833984D02*
X8897325Y-4862555D01*
X8897325Y-4862555D02*
X8878277Y-4881603D01*
X8878277Y-4881603D02*
X8859230Y-4891127D01*
X9097325Y-4833984D02*
X9116372Y-4833984D01*
X9116372Y-4833984D02*
X9135420Y-4843508D01*
X9135420Y-4843508D02*
X9144944Y-4853031D01*
X9144944Y-4853031D02*
X9154468Y-4872079D01*
X9154468Y-4872079D02*
X9163991Y-4910174D01*
X9163991Y-4910174D02*
X9163991Y-4957793D01*
X9163991Y-4957793D02*
X9154468Y-4995888D01*
X9154468Y-4995888D02*
X9144944Y-5014936D01*
X9144944Y-5014936D02*
X9135420Y-5024460D01*
X9135420Y-5024460D02*
X9116372Y-5033984D01*
X9116372Y-5033984D02*
X9097325Y-5033984D01*
X9097325Y-5033984D02*
X9078277Y-5024460D01*
X9078277Y-5024460D02*
X9068753Y-5014936D01*
X9068753Y-5014936D02*
X9059230Y-4995888D01*
X9059230Y-4995888D02*
X9049706Y-4957793D01*
X9049706Y-4957793D02*
X9049706Y-4910174D01*
X9049706Y-4910174D02*
X9059230Y-4872079D01*
X9059230Y-4872079D02*
X9068753Y-4853031D01*
X9068753Y-4853031D02*
X9078277Y-4843508D01*
X9078277Y-4843508D02*
X9097325Y-4833984D01*
X9402087Y-5033984D02*
X9402087Y-4833984D01*
X9487801Y-5033984D02*
X9487801Y-4929222D01*
X9487801Y-4929222D02*
X9478277Y-4910174D01*
X9478277Y-4910174D02*
X9459230Y-4900650D01*
X9459230Y-4900650D02*
X9430658Y-4900650D01*
X9430658Y-4900650D02*
X9411611Y-4910174D01*
X9411611Y-4910174D02*
X9402087Y-4919698D01*
X9611611Y-5033984D02*
X9592563Y-5024460D01*
X9592563Y-5024460D02*
X9583039Y-5014936D01*
X9583039Y-5014936D02*
X9573515Y-4995888D01*
X9573515Y-4995888D02*
X9573515Y-4938746D01*
X9573515Y-4938746D02*
X9583039Y-4919698D01*
X9583039Y-4919698D02*
X9592563Y-4910174D01*
X9592563Y-4910174D02*
X9611611Y-4900650D01*
X9611611Y-4900650D02*
X9640182Y-4900650D01*
X9640182Y-4900650D02*
X9659230Y-4910174D01*
X9659230Y-4910174D02*
X9668753Y-4919698D01*
X9668753Y-4919698D02*
X9678277Y-4938746D01*
X9678277Y-4938746D02*
X9678277Y-4995888D01*
X9678277Y-4995888D02*
X9668753Y-5014936D01*
X9668753Y-5014936D02*
X9659230Y-5024460D01*
X9659230Y-5024460D02*
X9640182Y-5033984D01*
X9640182Y-5033984D02*
X9611611Y-5033984D01*
X9792563Y-5033984D02*
X9773515Y-5024460D01*
X9773515Y-5024460D02*
X9763992Y-5005412D01*
X9763992Y-5005412D02*
X9763992Y-4833984D01*
X9944944Y-5024460D02*
X9925896Y-5033984D01*
X9925896Y-5033984D02*
X9887801Y-5033984D01*
X9887801Y-5033984D02*
X9868753Y-5024460D01*
X9868753Y-5024460D02*
X9859230Y-5005412D01*
X9859230Y-5005412D02*
X9859230Y-4929222D01*
X9859230Y-4929222D02*
X9868753Y-4910174D01*
X9868753Y-4910174D02*
X9887801Y-4900650D01*
X9887801Y-4900650D02*
X9925896Y-4900650D01*
X9925896Y-4900650D02*
X9944944Y-4910174D01*
X9944944Y-4910174D02*
X9954468Y-4929222D01*
X9954468Y-4929222D02*
X9954468Y-4948269D01*
X9954468Y-4948269D02*
X9859230Y-4967317D01*
X10030658Y-5024460D02*
X10049706Y-5033984D01*
X10049706Y-5033984D02*
X10087801Y-5033984D01*
X10087801Y-5033984D02*
X10106849Y-5024460D01*
X10106849Y-5024460D02*
X10116373Y-5005412D01*
X10116373Y-5005412D02*
X10116373Y-4995888D01*
X10116373Y-4995888D02*
X10106849Y-4976841D01*
X10106849Y-4976841D02*
X10087801Y-4967317D01*
X10087801Y-4967317D02*
X10059230Y-4967317D01*
X10059230Y-4967317D02*
X10040182Y-4957793D01*
X10040182Y-4957793D02*
X10030658Y-4938746D01*
X10030658Y-4938746D02*
X10030658Y-4929222D01*
X10030658Y-4929222D02*
X10040182Y-4910174D01*
X10040182Y-4910174D02*
X10059230Y-4900650D01*
X10059230Y-4900650D02*
X10087801Y-4900650D01*
X10087801Y-4900650D02*
X10106849Y-4910174D01*
X10183039Y-5110174D02*
X10192563Y-5100650D01*
X10192563Y-5100650D02*
X10211611Y-5072079D01*
X10211611Y-5072079D02*
X10221134Y-5053031D01*
X10221134Y-5053031D02*
X10230658Y-5024460D01*
X10230658Y-5024460D02*
X10240182Y-4976841D01*
X10240182Y-4976841D02*
X10240182Y-4938746D01*
X10240182Y-4938746D02*
X10230658Y-4891127D01*
X10230658Y-4891127D02*
X10221134Y-4862555D01*
X10221134Y-4862555D02*
X10211611Y-4843508D01*
X10211611Y-4843508D02*
X10192563Y-4814936D01*
X10192563Y-4814936D02*
X10183039Y-4805412D01*
M02*
