%TF.GenerationSoftware,KiCad,Pcbnew,10.0.1*%
%TF.CreationDate,2026-06-23T21:41:35+02:00*%
%TF.ProjectId,BB_helper_SSOP_10,42425f68-656c-4706-9572-5f53534f505f,1*%
%TF.SameCoordinates,Original*%
%TF.FileFunction,Legend,Top*%
%TF.FilePolarity,Positive*%
%FSLAX46Y46*%
G04 Gerber Fmt 4.6, Leading zero omitted, Abs format (unit mm)*
G04 Created by KiCad (PCBNEW 10.0.1) date 2026-06-23 21:41:35*
%MOMM*%
%LPD*%
G01*
G04 APERTURE LIST*
%ADD10C,0.150000*%
%ADD11C,0.120000*%
%ADD12R,1.100000X0.510000*%
%ADD13R,1.700000X1.700000*%
%ADD14C,1.700000*%
G04 APERTURE END LIST*
D10*
X59602228Y-38285713D02*
X59649847Y-38142856D01*
X59649847Y-38142856D02*
X59649847Y-37904761D01*
X59649847Y-37904761D02*
X59602228Y-37809523D01*
X59602228Y-37809523D02*
X59554608Y-37761904D01*
X59554608Y-37761904D02*
X59459370Y-37714285D01*
X59459370Y-37714285D02*
X59364132Y-37714285D01*
X59364132Y-37714285D02*
X59268894Y-37761904D01*
X59268894Y-37761904D02*
X59221275Y-37809523D01*
X59221275Y-37809523D02*
X59173656Y-37904761D01*
X59173656Y-37904761D02*
X59126037Y-38095237D01*
X59126037Y-38095237D02*
X59078418Y-38190475D01*
X59078418Y-38190475D02*
X59030799Y-38238094D01*
X59030799Y-38238094D02*
X58935561Y-38285713D01*
X58935561Y-38285713D02*
X58840323Y-38285713D01*
X58840323Y-38285713D02*
X58745085Y-38238094D01*
X58745085Y-38238094D02*
X58697466Y-38190475D01*
X58697466Y-38190475D02*
X58649847Y-38095237D01*
X58649847Y-38095237D02*
X58649847Y-37857142D01*
X58649847Y-37857142D02*
X58697466Y-37714285D01*
X59602228Y-37333332D02*
X59649847Y-37190475D01*
X59649847Y-37190475D02*
X59649847Y-36952380D01*
X59649847Y-36952380D02*
X59602228Y-36857142D01*
X59602228Y-36857142D02*
X59554608Y-36809523D01*
X59554608Y-36809523D02*
X59459370Y-36761904D01*
X59459370Y-36761904D02*
X59364132Y-36761904D01*
X59364132Y-36761904D02*
X59268894Y-36809523D01*
X59268894Y-36809523D02*
X59221275Y-36857142D01*
X59221275Y-36857142D02*
X59173656Y-36952380D01*
X59173656Y-36952380D02*
X59126037Y-37142856D01*
X59126037Y-37142856D02*
X59078418Y-37238094D01*
X59078418Y-37238094D02*
X59030799Y-37285713D01*
X59030799Y-37285713D02*
X58935561Y-37333332D01*
X58935561Y-37333332D02*
X58840323Y-37333332D01*
X58840323Y-37333332D02*
X58745085Y-37285713D01*
X58745085Y-37285713D02*
X58697466Y-37238094D01*
X58697466Y-37238094D02*
X58649847Y-37142856D01*
X58649847Y-37142856D02*
X58649847Y-36904761D01*
X58649847Y-36904761D02*
X58697466Y-36761904D01*
X58649847Y-36142856D02*
X58649847Y-35952380D01*
X58649847Y-35952380D02*
X58697466Y-35857142D01*
X58697466Y-35857142D02*
X58792704Y-35761904D01*
X58792704Y-35761904D02*
X58983180Y-35714285D01*
X58983180Y-35714285D02*
X59316513Y-35714285D01*
X59316513Y-35714285D02*
X59506989Y-35761904D01*
X59506989Y-35761904D02*
X59602228Y-35857142D01*
X59602228Y-35857142D02*
X59649847Y-35952380D01*
X59649847Y-35952380D02*
X59649847Y-36142856D01*
X59649847Y-36142856D02*
X59602228Y-36238094D01*
X59602228Y-36238094D02*
X59506989Y-36333332D01*
X59506989Y-36333332D02*
X59316513Y-36380951D01*
X59316513Y-36380951D02*
X58983180Y-36380951D01*
X58983180Y-36380951D02*
X58792704Y-36333332D01*
X58792704Y-36333332D02*
X58697466Y-36238094D01*
X58697466Y-36238094D02*
X58649847Y-36142856D01*
X59649847Y-35285713D02*
X58649847Y-35285713D01*
X58649847Y-35285713D02*
X58649847Y-34904761D01*
X58649847Y-34904761D02*
X58697466Y-34809523D01*
X58697466Y-34809523D02*
X58745085Y-34761904D01*
X58745085Y-34761904D02*
X58840323Y-34714285D01*
X58840323Y-34714285D02*
X58983180Y-34714285D01*
X58983180Y-34714285D02*
X59078418Y-34761904D01*
X59078418Y-34761904D02*
X59126037Y-34809523D01*
X59126037Y-34809523D02*
X59173656Y-34904761D01*
X59173656Y-34904761D02*
X59173656Y-35285713D01*
X61259791Y-36690476D02*
X61259791Y-37261904D01*
X61259791Y-36976190D02*
X60259791Y-36976190D01*
X60259791Y-36976190D02*
X60402648Y-37071428D01*
X60402648Y-37071428D02*
X60497886Y-37166666D01*
X60497886Y-37166666D02*
X60545505Y-37261904D01*
X60259791Y-36071428D02*
X60259791Y-35976190D01*
X60259791Y-35976190D02*
X60307410Y-35880952D01*
X60307410Y-35880952D02*
X60355029Y-35833333D01*
X60355029Y-35833333D02*
X60450267Y-35785714D01*
X60450267Y-35785714D02*
X60640743Y-35738095D01*
X60640743Y-35738095D02*
X60878838Y-35738095D01*
X60878838Y-35738095D02*
X61069314Y-35785714D01*
X61069314Y-35785714D02*
X61164552Y-35833333D01*
X61164552Y-35833333D02*
X61212172Y-35880952D01*
X61212172Y-35880952D02*
X61259791Y-35976190D01*
X61259791Y-35976190D02*
X61259791Y-36071428D01*
X61259791Y-36071428D02*
X61212172Y-36166666D01*
X61212172Y-36166666D02*
X61164552Y-36214285D01*
X61164552Y-36214285D02*
X61069314Y-36261904D01*
X61069314Y-36261904D02*
X60878838Y-36309523D01*
X60878838Y-36309523D02*
X60640743Y-36309523D01*
X60640743Y-36309523D02*
X60450267Y-36261904D01*
X60450267Y-36261904D02*
X60355029Y-36214285D01*
X60355029Y-36214285D02*
X60307410Y-36166666D01*
X60307410Y-36166666D02*
X60259791Y-36071428D01*
%TO.C,J3*%
X57880000Y-33930000D02*
X62020000Y-33930000D01*
X57880000Y-39070000D02*
X62020000Y-39070000D01*
D11*
X57550000Y-33973081D02*
X57310000Y-33643081D01*
X57790000Y-33643081D01*
X57550000Y-33973081D01*
G36*
X57550000Y-33973081D02*
G01*
X57310000Y-33643081D01*
X57790000Y-33643081D01*
X57550000Y-33973081D01*
G37*
%TD*%
%LPC*%
D12*
%TO.C,J3*%
X57400000Y-34500000D03*
X57400000Y-35500000D03*
X57400000Y-36500000D03*
X57400000Y-37500000D03*
X57400000Y-38500000D03*
X62500000Y-38500000D03*
X62500000Y-37500000D03*
X62500000Y-36500000D03*
X62500000Y-35500000D03*
X62500000Y-34500000D03*
%TD*%
D13*
%TO.C,J1*%
X53600000Y-31360000D03*
D14*
X53600000Y-33900000D03*
X53600000Y-36440000D03*
X53600000Y-38980000D03*
X53600000Y-41520000D03*
%TD*%
%TO.C,J2*%
X66300000Y-31360000D03*
X66300000Y-33900000D03*
X66300000Y-36440000D03*
X66300000Y-38980000D03*
X66300000Y-41520000D03*
%TD*%
%LPD*%
M02*
