%TF.GenerationSoftware,KiCad,Pcbnew,10.0.1*%
%TF.CreationDate,2026-06-23T23:14:10+02:00*%
%TF.ProjectId,Converter_DIP_SOIC_16,436f6e76-6572-4746-9572-5f4449505f53,1*%
%TF.SameCoordinates,Original*%
%TF.FileFunction,Copper,L1,Top*%
%TF.FilePolarity,Positive*%
%FSLAX46Y46*%
G04 Gerber Fmt 4.6, Leading zero omitted, Abs format (unit mm)*
G04 Created by KiCad (PCBNEW 10.0.1) date 2026-06-23 23:14:10*
%MOMM*%
%LPD*%
G01*
G04 APERTURE LIST*
G04 Aperture macros list*
%AMRoundRect*
0 Rectangle with rounded corners*
0 $1 Rounding radius*
0 $2 $3 $4 $5 $6 $7 $8 $9 X,Y pos of 4 corners*
0 Add a 4 corners polygon primitive as box body*
4,1,4,$2,$3,$4,$5,$6,$7,$8,$9,$2,$3,0*
0 Add four circle primitives for the rounded corners*
1,1,$1+$1,$2,$3*
1,1,$1+$1,$4,$5*
1,1,$1+$1,$6,$7*
1,1,$1+$1,$8,$9*
0 Add four rect primitives between the rounded corners*
20,1,$1+$1,$2,$3,$4,$5,0*
20,1,$1+$1,$4,$5,$6,$7,0*
20,1,$1+$1,$6,$7,$8,$9,0*
20,1,$1+$1,$8,$9,$2,$3,0*%
G04 Aperture macros list end*
%TA.AperFunction,SMDPad,CuDef*%
%ADD10RoundRect,0.150000X-0.150000X0.825000X-0.150000X-0.825000X0.150000X-0.825000X0.150000X0.825000X0*%
%TD*%
%TA.AperFunction,ComponentPad*%
%ADD11R,1.700000X1.700000*%
%TD*%
%TA.AperFunction,ComponentPad*%
%ADD12C,1.700000*%
%TD*%
%TA.AperFunction,ViaPad*%
%ADD13C,0.600000*%
%TD*%
%TA.AperFunction,Conductor*%
%ADD14C,0.200000*%
%TD*%
G04 APERTURE END LIST*
D10*
%TO.P,U1,1,MODE_1*%
%TO.N,Net-(J1A-Pin_1)*%
X58245000Y-50625000D03*
%TO.P,U1,2,I_IN1_2*%
%TO.N,Net-(J1B-Pin_2)*%
X56975000Y-50625000D03*
%TO.P,U1,3,VC1_3*%
%TO.N,Net-(J1C-Pin_3)*%
X55705000Y-50625000D03*
%TO.P,U1,4,I_OUT1_4*%
%TO.N,Net-(J1D-Pin_4)*%
X54435000Y-50625000D03*
%TO.P,U1,5,I_OUT2_5*%
%TO.N,Net-(J1E-Pin_5)*%
X53165000Y-50625000D03*
%TO.P,U1,6,VC2_6*%
%TO.N,Net-(J1F-Pin_6)*%
X51895000Y-50625000D03*
%TO.P,U1,7,I_IN2_7*%
%TO.N,Net-(J1G-Pin_7)*%
X50625000Y-50625000D03*
%TO.P,U1,8,GND_8*%
%TO.N,Net-(J1H-Pin_8)*%
X49355000Y-50625000D03*
%TO.P,U1,9,V-_9*%
%TO.N,Net-(J2A-Pin_1)*%
X49355000Y-55575000D03*
%TO.P,U1,10,I_IN3_10*%
%TO.N,Net-(J2B-Pin_2)*%
X50625000Y-55575000D03*
%TO.P,U1,11,VC3_11*%
%TO.N,Net-(J2C-Pin_3)*%
X51895000Y-55575000D03*
%TO.P,U1,12,I_OUT3_12*%
%TO.N,Net-(J2D-Pin_4)*%
X53165000Y-55575000D03*
%TO.P,U1,13,I_OUT4_13*%
%TO.N,Net-(J2E-Pin_5)*%
X54435000Y-55575000D03*
%TO.P,U1,14,VC4_14*%
%TO.N,Net-(J2F-Pin_6)*%
X55705000Y-55575000D03*
%TO.P,U1,15,I_IN4_15*%
%TO.N,Net-(J2G-Pin_7)*%
X56975000Y-55575000D03*
%TO.P,U1,16,V+_16*%
%TO.N,Net-(J2H-Pin_8)*%
X58245000Y-55575000D03*
%TD*%
D11*
%TO.P,J1,1,Pin_1_1*%
%TO.N,Net-(J1A-Pin_1)*%
X50000000Y-30000000D03*
D12*
%TO.P,J1,2,Pin_2_2*%
%TO.N,Net-(J1B-Pin_2)*%
X50000000Y-32540000D03*
%TO.P,J1,3,Pin_3_3*%
%TO.N,Net-(J1C-Pin_3)*%
X50000000Y-35080000D03*
%TO.P,J1,4,Pin_4_4*%
%TO.N,Net-(J1D-Pin_4)*%
X50000000Y-37620000D03*
%TO.P,J1,5,Pin_5_5*%
%TO.N,Net-(J1E-Pin_5)*%
X50000000Y-40160000D03*
%TO.P,J1,6,Pin_6_6*%
%TO.N,Net-(J1F-Pin_6)*%
X50000000Y-42700000D03*
%TO.P,J1,7,Pin_7_7*%
%TO.N,Net-(J1G-Pin_7)*%
X50000000Y-45240000D03*
%TO.P,J1,8,Pin_8_8*%
%TO.N,Net-(J1H-Pin_8)*%
X50000000Y-47780000D03*
%TD*%
%TO.P,J2,1,Pin_1_1*%
%TO.N,Net-(J2A-Pin_1)*%
X57620000Y-47780000D03*
%TO.P,J2,2,Pin_2_2*%
%TO.N,Net-(J2B-Pin_2)*%
X57620000Y-45240000D03*
%TO.P,J2,3,Pin_3_3*%
%TO.N,Net-(J2C-Pin_3)*%
X57620000Y-42700000D03*
%TO.P,J2,4,Pin_4_4*%
%TO.N,Net-(J2D-Pin_4)*%
X57620000Y-40160000D03*
%TO.P,J2,5,Pin_5_5*%
%TO.N,Net-(J2E-Pin_5)*%
X57620000Y-37620000D03*
%TO.P,J2,6,Pin_6_6*%
%TO.N,Net-(J2F-Pin_6)*%
X57620000Y-35080000D03*
%TO.P,J2,7,Pin_7_7*%
%TO.N,Net-(J2G-Pin_7)*%
X57620000Y-32540000D03*
%TO.P,J2,8,Pin_8_8*%
%TO.N,Net-(J2H-Pin_8)*%
X57620000Y-30000000D03*
%TD*%
D13*
%TO.N,Net-(J2A-Pin_1)*%
X49350974Y-54100000D03*
%TO.N,Net-(J2B-Pin_2)*%
X50600000Y-54100000D03*
%TO.N,Net-(J2C-Pin_3)*%
X51900000Y-54100000D03*
%TO.N,Net-(J2D-Pin_4)*%
X53200000Y-54100000D03*
%TO.N,Net-(J2E-Pin_5)*%
X53200000Y-53200000D03*
%TO.N,Net-(J2F-Pin_6)*%
X53200000Y-52300000D03*
%TO.N,Net-(J2G-Pin_7)*%
X54924265Y-53175735D03*
%TO.N,Net-(J2H-Pin_8)*%
X54899999Y-52305253D03*
%TD*%
%TO.N,Net-(J1A-Pin_1)*%
D14*
X58245000Y-50279448D02*
X57132709Y-49167157D01*
X56732843Y-49167157D02*
X53895000Y-46329314D01*
X58245000Y-50625000D02*
X58245000Y-50279448D01*
X53895000Y-33895000D02*
X50000000Y-30000000D01*
X53895000Y-46329314D02*
X53895000Y-33895000D01*
X57132709Y-49167157D02*
X56732843Y-49167157D01*
%TO.N,Net-(J1B-Pin_2)*%
X53495000Y-36035000D02*
X50000000Y-32540000D01*
X56975000Y-49975000D02*
X53495000Y-46495000D01*
X53495000Y-46495000D02*
X53495000Y-36035000D01*
X56975000Y-50625000D02*
X56975000Y-49975000D01*
%TO.N,Net-(J1C-Pin_3)*%
X55705000Y-50625000D02*
X55705000Y-49305000D01*
X53095000Y-46695000D02*
X53095000Y-38175000D01*
X53095000Y-38175000D02*
X50000000Y-35080000D01*
X55705000Y-49305000D02*
X53095000Y-46695000D01*
%TO.N,Net-(J1D-Pin_4)*%
X52695000Y-40315000D02*
X50000000Y-37620000D01*
X54435000Y-49335000D02*
X52695000Y-47595000D01*
X54435000Y-50625000D02*
X54435000Y-49335000D01*
X52695000Y-47595000D02*
X52695000Y-40315000D01*
%TO.N,Net-(J1E-Pin_5)*%
X53165000Y-49370000D02*
X52295000Y-48500000D01*
X52295000Y-42455000D02*
X50000000Y-40160000D01*
X53165000Y-50625000D02*
X53165000Y-49370000D01*
X52295000Y-48500000D02*
X52295000Y-42455000D01*
%TO.N,Net-(J1F-Pin_6)*%
X51895000Y-50625000D02*
X51895000Y-44595000D01*
X51895000Y-44595000D02*
X50000000Y-42700000D01*
%TO.N,Net-(J1G-Pin_7)*%
X50700000Y-49300000D02*
X51495000Y-48505000D01*
X51495000Y-46735000D02*
X50000000Y-45240000D01*
X50700000Y-50550000D02*
X50700000Y-49300000D01*
X51495000Y-48505000D02*
X51495000Y-46735000D01*
X50625000Y-50625000D02*
X50700000Y-50550000D01*
%TO.N,Net-(J1H-Pin_8)*%
X49400000Y-49450000D02*
X49400000Y-50580000D01*
X50000000Y-48850000D02*
X49400000Y-49450000D01*
X49400000Y-50580000D02*
X49355000Y-50625000D01*
X50000000Y-47780000D02*
X50000000Y-48850000D01*
%TO.N,Net-(J2A-Pin_1)*%
X49355000Y-54104026D02*
X49350974Y-54100000D01*
X49355000Y-55575000D02*
X49355000Y-54104026D01*
%TO.N,Net-(J2B-Pin_2)*%
X50625000Y-55575000D02*
X50625000Y-54125000D01*
X50625000Y-54125000D02*
X50600000Y-54100000D01*
%TO.N,Net-(J2C-Pin_3)*%
X51895000Y-55575000D02*
X51895000Y-54105000D01*
X51895000Y-54105000D02*
X51900000Y-54100000D01*
%TO.N,Net-(J2D-Pin_4)*%
X53165000Y-55575000D02*
X53165000Y-54135000D01*
X53165000Y-54135000D02*
X53200000Y-54100000D01*
%TO.N,Net-(J2E-Pin_5)*%
X54435000Y-55575000D02*
X54435000Y-54435000D01*
X54435000Y-54435000D02*
X53200000Y-53200000D01*
%TO.N,Net-(J2F-Pin_6)*%
X55705000Y-55575000D02*
X55705000Y-54805000D01*
X55705000Y-54805000D02*
X53200000Y-52300000D01*
%TO.N,Net-(J2G-Pin_7)*%
X54924265Y-53175735D02*
X56975000Y-55226470D01*
X56975000Y-55226470D02*
X56975000Y-55575000D01*
%TO.N,Net-(J2H-Pin_8)*%
X58245000Y-55575000D02*
X58245000Y-54600001D01*
X58245000Y-54600001D02*
X55950252Y-52305253D01*
X55950252Y-52305253D02*
X54899999Y-52305253D01*
%TD*%
M02*
