%TF.GenerationSoftware,KiCad,Pcbnew,10.0.1*%
%TF.CreationDate,2026-06-24T22:42:49+02:00*%
%TF.ProjectId,BB_Toggle_Sw,42425f54-6f67-4676-9c65-5f53772e6b69,1*%
%TF.SameCoordinates,Original*%
%TF.FileFunction,Legend,Top*%
%TF.FilePolarity,Positive*%
%FSLAX46Y46*%
G04 Gerber Fmt 4.6, Leading zero omitted, Abs format (unit mm)*
G04 Created by KiCad (PCBNEW 10.0.1) date 2026-06-24 22:42:49*
%MOMM*%
%LPD*%
G01*
G04 APERTURE LIST*
%ADD10C,0.150000*%
%ADD11C,0.120000*%
%ADD12C,2.800000*%
%ADD13C,1.700000*%
%ADD14R,1.700000X1.700000*%
G04 APERTURE END LIST*
D10*
X53095180Y-27907143D02*
X53095180Y-28478571D01*
X52095180Y-28192857D02*
X53095180Y-28192857D01*
X52095180Y-29383333D02*
X52571371Y-29050000D01*
X52095180Y-28811905D02*
X53095180Y-28811905D01*
X53095180Y-28811905D02*
X53095180Y-29192857D01*
X53095180Y-29192857D02*
X53047561Y-29288095D01*
X53047561Y-29288095D02*
X52999942Y-29335714D01*
X52999942Y-29335714D02*
X52904704Y-29383333D01*
X52904704Y-29383333D02*
X52761847Y-29383333D01*
X52761847Y-29383333D02*
X52666609Y-29335714D01*
X52666609Y-29335714D02*
X52618990Y-29288095D01*
X52618990Y-29288095D02*
X52571371Y-29192857D01*
X52571371Y-29192857D02*
X52571371Y-28811905D01*
X52142800Y-29764286D02*
X52095180Y-29907143D01*
X52095180Y-29907143D02*
X52095180Y-30145238D01*
X52095180Y-30145238D02*
X52142800Y-30240476D01*
X52142800Y-30240476D02*
X52190419Y-30288095D01*
X52190419Y-30288095D02*
X52285657Y-30335714D01*
X52285657Y-30335714D02*
X52380895Y-30335714D01*
X52380895Y-30335714D02*
X52476133Y-30288095D01*
X52476133Y-30288095D02*
X52523752Y-30240476D01*
X52523752Y-30240476D02*
X52571371Y-30145238D01*
X52571371Y-30145238D02*
X52618990Y-29954762D01*
X52618990Y-29954762D02*
X52666609Y-29859524D01*
X52666609Y-29859524D02*
X52714228Y-29811905D01*
X52714228Y-29811905D02*
X52809466Y-29764286D01*
X52809466Y-29764286D02*
X52904704Y-29764286D01*
X52904704Y-29764286D02*
X52999942Y-29811905D01*
X52999942Y-29811905D02*
X53047561Y-29859524D01*
X53047561Y-29859524D02*
X53095180Y-29954762D01*
X53095180Y-29954762D02*
X53095180Y-30192857D01*
X53095180Y-30192857D02*
X53047561Y-30335714D01*
X53095180Y-31954762D02*
X53095180Y-31764286D01*
X53095180Y-31764286D02*
X53047561Y-31669048D01*
X53047561Y-31669048D02*
X52999942Y-31621429D01*
X52999942Y-31621429D02*
X52857085Y-31526191D01*
X52857085Y-31526191D02*
X52666609Y-31478572D01*
X52666609Y-31478572D02*
X52285657Y-31478572D01*
X52285657Y-31478572D02*
X52190419Y-31526191D01*
X52190419Y-31526191D02*
X52142800Y-31573810D01*
X52142800Y-31573810D02*
X52095180Y-31669048D01*
X52095180Y-31669048D02*
X52095180Y-31859524D01*
X52095180Y-31859524D02*
X52142800Y-31954762D01*
X52142800Y-31954762D02*
X52190419Y-32002381D01*
X52190419Y-32002381D02*
X52285657Y-32050000D01*
X52285657Y-32050000D02*
X52523752Y-32050000D01*
X52523752Y-32050000D02*
X52618990Y-32002381D01*
X52618990Y-32002381D02*
X52666609Y-31954762D01*
X52666609Y-31954762D02*
X52714228Y-31859524D01*
X52714228Y-31859524D02*
X52714228Y-31669048D01*
X52714228Y-31669048D02*
X52666609Y-31573810D01*
X52666609Y-31573810D02*
X52618990Y-31526191D01*
X52618990Y-31526191D02*
X52523752Y-31478572D01*
X52190419Y-32478572D02*
X52142800Y-32526191D01*
X52142800Y-32526191D02*
X52095180Y-32478572D01*
X52095180Y-32478572D02*
X52142800Y-32430953D01*
X52142800Y-32430953D02*
X52190419Y-32478572D01*
X52190419Y-32478572D02*
X52095180Y-32478572D01*
X53095180Y-32859524D02*
X53095180Y-33478571D01*
X53095180Y-33478571D02*
X52714228Y-33145238D01*
X52714228Y-33145238D02*
X52714228Y-33288095D01*
X52714228Y-33288095D02*
X52666609Y-33383333D01*
X52666609Y-33383333D02*
X52618990Y-33430952D01*
X52618990Y-33430952D02*
X52523752Y-33478571D01*
X52523752Y-33478571D02*
X52285657Y-33478571D01*
X52285657Y-33478571D02*
X52190419Y-33430952D01*
X52190419Y-33430952D02*
X52142800Y-33383333D01*
X52142800Y-33383333D02*
X52095180Y-33288095D01*
X52095180Y-33288095D02*
X52095180Y-33002381D01*
X52095180Y-33002381D02*
X52142800Y-32907143D01*
X52142800Y-32907143D02*
X52190419Y-32859524D01*
X53095180Y-34383333D02*
X53095180Y-33907143D01*
X53095180Y-33907143D02*
X52618990Y-33859524D01*
X52618990Y-33859524D02*
X52666609Y-33907143D01*
X52666609Y-33907143D02*
X52714228Y-34002381D01*
X52714228Y-34002381D02*
X52714228Y-34240476D01*
X52714228Y-34240476D02*
X52666609Y-34335714D01*
X52666609Y-34335714D02*
X52618990Y-34383333D01*
X52618990Y-34383333D02*
X52523752Y-34430952D01*
X52523752Y-34430952D02*
X52285657Y-34430952D01*
X52285657Y-34430952D02*
X52190419Y-34383333D01*
X52190419Y-34383333D02*
X52142800Y-34335714D01*
X52142800Y-34335714D02*
X52095180Y-34240476D01*
X52095180Y-34240476D02*
X52095180Y-34002381D01*
X52095180Y-34002381D02*
X52142800Y-33907143D01*
X52142800Y-33907143D02*
X52190419Y-33859524D01*
X52095180Y-34859524D02*
X52761847Y-34859524D01*
X52666609Y-34859524D02*
X52714228Y-34907143D01*
X52714228Y-34907143D02*
X52761847Y-35002381D01*
X52761847Y-35002381D02*
X52761847Y-35145238D01*
X52761847Y-35145238D02*
X52714228Y-35240476D01*
X52714228Y-35240476D02*
X52618990Y-35288095D01*
X52618990Y-35288095D02*
X52095180Y-35288095D01*
X52618990Y-35288095D02*
X52714228Y-35335714D01*
X52714228Y-35335714D02*
X52761847Y-35430952D01*
X52761847Y-35430952D02*
X52761847Y-35573809D01*
X52761847Y-35573809D02*
X52714228Y-35669048D01*
X52714228Y-35669048D02*
X52618990Y-35716667D01*
X52618990Y-35716667D02*
X52095180Y-35716667D01*
X52095180Y-36192857D02*
X52761847Y-36192857D01*
X52666609Y-36192857D02*
X52714228Y-36240476D01*
X52714228Y-36240476D02*
X52761847Y-36335714D01*
X52761847Y-36335714D02*
X52761847Y-36478571D01*
X52761847Y-36478571D02*
X52714228Y-36573809D01*
X52714228Y-36573809D02*
X52618990Y-36621428D01*
X52618990Y-36621428D02*
X52095180Y-36621428D01*
X52618990Y-36621428D02*
X52714228Y-36669047D01*
X52714228Y-36669047D02*
X52761847Y-36764285D01*
X52761847Y-36764285D02*
X52761847Y-36907142D01*
X52761847Y-36907142D02*
X52714228Y-37002381D01*
X52714228Y-37002381D02*
X52618990Y-37050000D01*
X52618990Y-37050000D02*
X52095180Y-37050000D01*
%TO.C,SW1*%
D11*
X46350000Y-25750000D02*
X58750000Y-25750000D01*
X58750000Y-39350000D01*
X46350000Y-39350000D01*
X46350000Y-25750000D01*
%TD*%
%LPC*%
D12*
%TO.C,SW1*%
X54963000Y-27850000D03*
X54963000Y-32550000D03*
X54963000Y-37250000D03*
X50137000Y-27850000D03*
X50137000Y-32550000D03*
X50137000Y-37250000D03*
%TD*%
D13*
%TO.C,J2*%
X44920000Y-30000000D03*
X44920000Y-32540000D03*
X44920000Y-35080000D03*
%TD*%
D14*
%TO.C,J1*%
X60160000Y-30000000D03*
D13*
X60160000Y-32540000D03*
X60160000Y-35080000D03*
%TD*%
%LPD*%
M02*
