%TF.GenerationSoftware,KiCad,Pcbnew,10.0.1*%
%TF.CreationDate,2026-06-25T21:28:26+02:00*%
%TF.ProjectId,BB_Toggle_Sw,42425f54-6f67-4676-9c65-5f53772e6b69,1*%
%TF.SameCoordinates,Original*%
%TF.FileFunction,Drillmap*%
%TF.FilePolarity,Positive*%
%FSLAX45Y45*%
G04 Gerber Fmt 4.5, Leading zero omitted, Abs format (unit mm)*
G04 Created by KiCad (PCBNEW 10.0.1) date 2026-06-25 21:28:26*
%MOMM*%
%LPD*%
G01*
G04 APERTURE LIST*
%ADD10C,0.050000*%
%ADD11C,0.200000*%
G04 APERTURE END LIST*
D10*
X4352500Y-2580000D02*
X6152500Y-2580000D01*
X6152500Y-3930000D01*
X4352500Y-3930000D01*
X4352500Y-2580000D01*
D11*
X4610777Y-4243984D02*
X4610777Y-4043984D01*
X4610777Y-4043984D02*
X4658396Y-4043984D01*
X4658396Y-4043984D02*
X4686967Y-4053508D01*
X4686967Y-4053508D02*
X4706015Y-4072555D01*
X4706015Y-4072555D02*
X4715539Y-4091603D01*
X4715539Y-4091603D02*
X4725063Y-4129698D01*
X4725063Y-4129698D02*
X4725063Y-4158269D01*
X4725063Y-4158269D02*
X4715539Y-4196365D01*
X4715539Y-4196365D02*
X4706015Y-4215412D01*
X4706015Y-4215412D02*
X4686967Y-4234460D01*
X4686967Y-4234460D02*
X4658396Y-4243984D01*
X4658396Y-4243984D02*
X4610777Y-4243984D01*
X4810777Y-4243984D02*
X4810777Y-4110650D01*
X4810777Y-4148746D02*
X4820301Y-4129698D01*
X4820301Y-4129698D02*
X4829824Y-4120174D01*
X4829824Y-4120174D02*
X4848872Y-4110650D01*
X4848872Y-4110650D02*
X4867920Y-4110650D01*
X4934586Y-4243984D02*
X4934586Y-4110650D01*
X4934586Y-4043984D02*
X4925063Y-4053508D01*
X4925063Y-4053508D02*
X4934586Y-4063031D01*
X4934586Y-4063031D02*
X4944110Y-4053508D01*
X4944110Y-4053508D02*
X4934586Y-4043984D01*
X4934586Y-4043984D02*
X4934586Y-4063031D01*
X5058396Y-4243984D02*
X5039348Y-4234460D01*
X5039348Y-4234460D02*
X5029824Y-4215412D01*
X5029824Y-4215412D02*
X5029824Y-4043984D01*
X5163158Y-4243984D02*
X5144110Y-4234460D01*
X5144110Y-4234460D02*
X5134586Y-4215412D01*
X5134586Y-4215412D02*
X5134586Y-4043984D01*
X5391729Y-4243984D02*
X5391729Y-4043984D01*
X5391729Y-4043984D02*
X5458396Y-4186841D01*
X5458396Y-4186841D02*
X5525063Y-4043984D01*
X5525063Y-4043984D02*
X5525063Y-4243984D01*
X5706015Y-4243984D02*
X5706015Y-4139222D01*
X5706015Y-4139222D02*
X5696491Y-4120174D01*
X5696491Y-4120174D02*
X5677443Y-4110650D01*
X5677443Y-4110650D02*
X5639348Y-4110650D01*
X5639348Y-4110650D02*
X5620301Y-4120174D01*
X5706015Y-4234460D02*
X5686967Y-4243984D01*
X5686967Y-4243984D02*
X5639348Y-4243984D01*
X5639348Y-4243984D02*
X5620301Y-4234460D01*
X5620301Y-4234460D02*
X5610777Y-4215412D01*
X5610777Y-4215412D02*
X5610777Y-4196365D01*
X5610777Y-4196365D02*
X5620301Y-4177317D01*
X5620301Y-4177317D02*
X5639348Y-4167793D01*
X5639348Y-4167793D02*
X5686967Y-4167793D01*
X5686967Y-4167793D02*
X5706015Y-4158269D01*
X5801253Y-4110650D02*
X5801253Y-4310650D01*
X5801253Y-4120174D02*
X5820301Y-4110650D01*
X5820301Y-4110650D02*
X5858396Y-4110650D01*
X5858396Y-4110650D02*
X5877443Y-4120174D01*
X5877443Y-4120174D02*
X5886967Y-4129698D01*
X5886967Y-4129698D02*
X5896491Y-4148746D01*
X5896491Y-4148746D02*
X5896491Y-4205889D01*
X5896491Y-4205889D02*
X5886967Y-4224936D01*
X5886967Y-4224936D02*
X5877443Y-4234460D01*
X5877443Y-4234460D02*
X5858396Y-4243984D01*
X5858396Y-4243984D02*
X5820301Y-4243984D01*
X5820301Y-4243984D02*
X5801253Y-4234460D01*
X5982205Y-4224936D02*
X5991729Y-4234460D01*
X5991729Y-4234460D02*
X5982205Y-4243984D01*
X5982205Y-4243984D02*
X5972682Y-4234460D01*
X5972682Y-4234460D02*
X5982205Y-4224936D01*
X5982205Y-4224936D02*
X5982205Y-4243984D01*
X5982205Y-4120174D02*
X5991729Y-4129698D01*
X5991729Y-4129698D02*
X5982205Y-4139222D01*
X5982205Y-4139222D02*
X5972682Y-4129698D01*
X5972682Y-4129698D02*
X5982205Y-4120174D01*
X5982205Y-4120174D02*
X5982205Y-4139222D01*
M02*
