%TF.GenerationSoftware,KiCad,Pcbnew,10.0.1*%
%TF.CreationDate,2026-06-24T22:42:53+02:00*%
%TF.ProjectId,BB_Toggle_Sw,42425f54-6f67-4676-9c65-5f53772e6b69,1*%
%TF.SameCoordinates,Original*%
%TF.FileFunction,Drillmap*%
%TF.FilePolarity,Positive*%
%FSLAX45Y45*%
G04 Gerber Fmt 4.5, Leading zero omitted, Abs format (unit mm)*
G04 Created by KiCad (PCBNEW 10.0.1) date 2026-06-24 22:42:53*
%MOMM*%
%LPD*%
G01*
G04 APERTURE LIST*
%ADD10C,0.050000*%
%ADD11C,0.200000*%
%ADD12C,0.100000*%
%ADD13C,0.180000*%
G04 APERTURE END LIST*
D10*
X4352500Y-2580000D02*
X6152500Y-2580000D01*
X6152500Y-3930000D01*
X4352500Y-3930000D01*
X4352500Y-2580000D01*
D11*
D12*
X4442000Y-2950000D02*
X4542000Y-3050000D01*
X4542000Y-2950000D02*
X4442000Y-3050000D01*
X4442000Y-3204000D02*
X4542000Y-3304000D01*
X4542000Y-3204000D02*
X4442000Y-3304000D01*
X4442000Y-3458000D02*
X4542000Y-3558000D01*
X4542000Y-3458000D02*
X4442000Y-3558000D01*
X5966000Y-2950000D02*
X6066000Y-3050000D01*
X6066000Y-2950000D02*
X5966000Y-3050000D01*
X5966000Y-3204000D02*
X6066000Y-3304000D01*
X6066000Y-3204000D02*
X5966000Y-3304000D01*
X5966000Y-3458000D02*
X6066000Y-3558000D01*
X6066000Y-3458000D02*
X5966000Y-3558000D01*
D13*
X5103700Y-2785000D02*
G75*
G02*
X4923700Y-2785000I-90000J0D01*
G01*
X4923700Y-2785000D02*
G75*
G02*
X5103700Y-2785000I90000J0D01*
G01*
X5103700Y-3255000D02*
G75*
G02*
X4923700Y-3255000I-90000J0D01*
G01*
X4923700Y-3255000D02*
G75*
G02*
X5103700Y-3255000I90000J0D01*
G01*
X5103700Y-3725000D02*
G75*
G02*
X4923700Y-3725000I-90000J0D01*
G01*
X4923700Y-3725000D02*
G75*
G02*
X5103700Y-3725000I90000J0D01*
G01*
X5586300Y-2785000D02*
G75*
G02*
X5406300Y-2785000I-90000J0D01*
G01*
X5406300Y-2785000D02*
G75*
G02*
X5586300Y-2785000I90000J0D01*
G01*
X5586300Y-3255000D02*
G75*
G02*
X5406300Y-3255000I-90000J0D01*
G01*
X5406300Y-3255000D02*
G75*
G02*
X5586300Y-3255000I90000J0D01*
G01*
X5586300Y-3725000D02*
G75*
G02*
X5406300Y-3725000I-90000J0D01*
G01*
X5406300Y-3725000D02*
G75*
G02*
X5586300Y-3725000I90000J0D01*
G01*
D11*
X4610777Y-4243984D02*
X4610777Y-4043984D01*
X4610777Y-4043984D02*
X4658396Y-4043984D01*
X4658396Y-4043984D02*
X4686967Y-4053508D01*
X4686967Y-4053508D02*
X4706015Y-4072555D01*
X4706015Y-4072555D02*
X4715539Y-4091603D01*
X4715539Y-4091603D02*
X4725063Y-4129698D01*
X4725063Y-4129698D02*
X4725063Y-4158269D01*
X4725063Y-4158269D02*
X4715539Y-4196365D01*
X4715539Y-4196365D02*
X4706015Y-4215412D01*
X4706015Y-4215412D02*
X4686967Y-4234460D01*
X4686967Y-4234460D02*
X4658396Y-4243984D01*
X4658396Y-4243984D02*
X4610777Y-4243984D01*
X4810777Y-4243984D02*
X4810777Y-4110650D01*
X4810777Y-4148746D02*
X4820301Y-4129698D01*
X4820301Y-4129698D02*
X4829824Y-4120174D01*
X4829824Y-4120174D02*
X4848872Y-4110650D01*
X4848872Y-4110650D02*
X4867920Y-4110650D01*
X4934586Y-4243984D02*
X4934586Y-4110650D01*
X4934586Y-4043984D02*
X4925063Y-4053508D01*
X4925063Y-4053508D02*
X4934586Y-4063031D01*
X4934586Y-4063031D02*
X4944110Y-4053508D01*
X4944110Y-4053508D02*
X4934586Y-4043984D01*
X4934586Y-4043984D02*
X4934586Y-4063031D01*
X5058396Y-4243984D02*
X5039348Y-4234460D01*
X5039348Y-4234460D02*
X5029824Y-4215412D01*
X5029824Y-4215412D02*
X5029824Y-4043984D01*
X5163158Y-4243984D02*
X5144110Y-4234460D01*
X5144110Y-4234460D02*
X5134586Y-4215412D01*
X5134586Y-4215412D02*
X5134586Y-4043984D01*
X5391729Y-4243984D02*
X5391729Y-4043984D01*
X5391729Y-4043984D02*
X5458396Y-4186841D01*
X5458396Y-4186841D02*
X5525063Y-4043984D01*
X5525063Y-4043984D02*
X5525063Y-4243984D01*
X5706015Y-4243984D02*
X5706015Y-4139222D01*
X5706015Y-4139222D02*
X5696491Y-4120174D01*
X5696491Y-4120174D02*
X5677443Y-4110650D01*
X5677443Y-4110650D02*
X5639348Y-4110650D01*
X5639348Y-4110650D02*
X5620301Y-4120174D01*
X5706015Y-4234460D02*
X5686967Y-4243984D01*
X5686967Y-4243984D02*
X5639348Y-4243984D01*
X5639348Y-4243984D02*
X5620301Y-4234460D01*
X5620301Y-4234460D02*
X5610777Y-4215412D01*
X5610777Y-4215412D02*
X5610777Y-4196365D01*
X5610777Y-4196365D02*
X5620301Y-4177317D01*
X5620301Y-4177317D02*
X5639348Y-4167793D01*
X5639348Y-4167793D02*
X5686967Y-4167793D01*
X5686967Y-4167793D02*
X5706015Y-4158269D01*
X5801253Y-4110650D02*
X5801253Y-4310650D01*
X5801253Y-4120174D02*
X5820301Y-4110650D01*
X5820301Y-4110650D02*
X5858396Y-4110650D01*
X5858396Y-4110650D02*
X5877443Y-4120174D01*
X5877443Y-4120174D02*
X5886967Y-4129698D01*
X5886967Y-4129698D02*
X5896491Y-4148746D01*
X5896491Y-4148746D02*
X5896491Y-4205889D01*
X5896491Y-4205889D02*
X5886967Y-4224936D01*
X5886967Y-4224936D02*
X5877443Y-4234460D01*
X5877443Y-4234460D02*
X5858396Y-4243984D01*
X5858396Y-4243984D02*
X5820301Y-4243984D01*
X5820301Y-4243984D02*
X5801253Y-4234460D01*
X5982205Y-4224936D02*
X5991729Y-4234460D01*
X5991729Y-4234460D02*
X5982205Y-4243984D01*
X5982205Y-4243984D02*
X5972682Y-4234460D01*
X5972682Y-4234460D02*
X5982205Y-4224936D01*
X5982205Y-4224936D02*
X5982205Y-4243984D01*
X5982205Y-4120174D02*
X5991729Y-4129698D01*
X5991729Y-4129698D02*
X5982205Y-4139222D01*
X5982205Y-4139222D02*
X5972682Y-4129698D01*
X5972682Y-4129698D02*
X5982205Y-4120174D01*
X5982205Y-4120174D02*
X5982205Y-4139222D01*
D12*
X4250000Y-4522500D02*
X4350000Y-4622500D01*
X4350000Y-4522500D02*
X4250000Y-4622500D01*
D11*
X4715539Y-4663984D02*
X4601253Y-4663984D01*
X4658396Y-4663984D02*
X4658396Y-4463984D01*
X4658396Y-4463984D02*
X4639348Y-4492555D01*
X4639348Y-4492555D02*
X4620301Y-4511603D01*
X4620301Y-4511603D02*
X4601253Y-4521127D01*
X4810777Y-4654460D02*
X4810777Y-4663984D01*
X4810777Y-4663984D02*
X4801253Y-4683031D01*
X4801253Y-4683031D02*
X4791729Y-4692555D01*
X4934586Y-4463984D02*
X4953634Y-4463984D01*
X4953634Y-4463984D02*
X4972682Y-4473508D01*
X4972682Y-4473508D02*
X4982205Y-4483031D01*
X4982205Y-4483031D02*
X4991729Y-4502079D01*
X4991729Y-4502079D02*
X5001253Y-4540174D01*
X5001253Y-4540174D02*
X5001253Y-4587793D01*
X5001253Y-4587793D02*
X4991729Y-4625889D01*
X4991729Y-4625889D02*
X4982205Y-4644936D01*
X4982205Y-4644936D02*
X4972682Y-4654460D01*
X4972682Y-4654460D02*
X4953634Y-4663984D01*
X4953634Y-4663984D02*
X4934586Y-4663984D01*
X4934586Y-4663984D02*
X4915539Y-4654460D01*
X4915539Y-4654460D02*
X4906015Y-4644936D01*
X4906015Y-4644936D02*
X4896491Y-4625889D01*
X4896491Y-4625889D02*
X4886967Y-4587793D01*
X4886967Y-4587793D02*
X4886967Y-4540174D01*
X4886967Y-4540174D02*
X4896491Y-4502079D01*
X4896491Y-4502079D02*
X4906015Y-4483031D01*
X4906015Y-4483031D02*
X4915539Y-4473508D01*
X4915539Y-4473508D02*
X4934586Y-4463984D01*
X5125063Y-4463984D02*
X5144110Y-4463984D01*
X5144110Y-4463984D02*
X5163158Y-4473508D01*
X5163158Y-4473508D02*
X5172682Y-4483031D01*
X5172682Y-4483031D02*
X5182205Y-4502079D01*
X5182205Y-4502079D02*
X5191729Y-4540174D01*
X5191729Y-4540174D02*
X5191729Y-4587793D01*
X5191729Y-4587793D02*
X5182205Y-4625889D01*
X5182205Y-4625889D02*
X5172682Y-4644936D01*
X5172682Y-4644936D02*
X5163158Y-4654460D01*
X5163158Y-4654460D02*
X5144110Y-4663984D01*
X5144110Y-4663984D02*
X5125063Y-4663984D01*
X5125063Y-4663984D02*
X5106015Y-4654460D01*
X5106015Y-4654460D02*
X5096491Y-4644936D01*
X5096491Y-4644936D02*
X5086967Y-4625889D01*
X5086967Y-4625889D02*
X5077444Y-4587793D01*
X5077444Y-4587793D02*
X5077444Y-4540174D01*
X5077444Y-4540174D02*
X5086967Y-4502079D01*
X5086967Y-4502079D02*
X5096491Y-4483031D01*
X5096491Y-4483031D02*
X5106015Y-4473508D01*
X5106015Y-4473508D02*
X5125063Y-4463984D01*
X5315539Y-4463984D02*
X5334586Y-4463984D01*
X5334586Y-4463984D02*
X5353634Y-4473508D01*
X5353634Y-4473508D02*
X5363158Y-4483031D01*
X5363158Y-4483031D02*
X5372682Y-4502079D01*
X5372682Y-4502079D02*
X5382205Y-4540174D01*
X5382205Y-4540174D02*
X5382205Y-4587793D01*
X5382205Y-4587793D02*
X5372682Y-4625889D01*
X5372682Y-4625889D02*
X5363158Y-4644936D01*
X5363158Y-4644936D02*
X5353634Y-4654460D01*
X5353634Y-4654460D02*
X5334586Y-4663984D01*
X5334586Y-4663984D02*
X5315539Y-4663984D01*
X5315539Y-4663984D02*
X5296491Y-4654460D01*
X5296491Y-4654460D02*
X5286967Y-4644936D01*
X5286967Y-4644936D02*
X5277444Y-4625889D01*
X5277444Y-4625889D02*
X5267920Y-4587793D01*
X5267920Y-4587793D02*
X5267920Y-4540174D01*
X5267920Y-4540174D02*
X5277444Y-4502079D01*
X5277444Y-4502079D02*
X5286967Y-4483031D01*
X5286967Y-4483031D02*
X5296491Y-4473508D01*
X5296491Y-4473508D02*
X5315539Y-4463984D01*
X5467920Y-4663984D02*
X5467920Y-4530650D01*
X5467920Y-4549698D02*
X5477444Y-4540174D01*
X5477444Y-4540174D02*
X5496491Y-4530650D01*
X5496491Y-4530650D02*
X5525063Y-4530650D01*
X5525063Y-4530650D02*
X5544110Y-4540174D01*
X5544110Y-4540174D02*
X5553634Y-4559222D01*
X5553634Y-4559222D02*
X5553634Y-4663984D01*
X5553634Y-4559222D02*
X5563158Y-4540174D01*
X5563158Y-4540174D02*
X5582205Y-4530650D01*
X5582205Y-4530650D02*
X5610777Y-4530650D01*
X5610777Y-4530650D02*
X5629824Y-4540174D01*
X5629824Y-4540174D02*
X5639348Y-4559222D01*
X5639348Y-4559222D02*
X5639348Y-4663984D01*
X5734586Y-4663984D02*
X5734586Y-4530650D01*
X5734586Y-4549698D02*
X5744110Y-4540174D01*
X5744110Y-4540174D02*
X5763158Y-4530650D01*
X5763158Y-4530650D02*
X5791729Y-4530650D01*
X5791729Y-4530650D02*
X5810777Y-4540174D01*
X5810777Y-4540174D02*
X5820301Y-4559222D01*
X5820301Y-4559222D02*
X5820301Y-4663984D01*
X5820301Y-4559222D02*
X5829824Y-4540174D01*
X5829824Y-4540174D02*
X5848872Y-4530650D01*
X5848872Y-4530650D02*
X5877443Y-4530650D01*
X5877443Y-4530650D02*
X5896491Y-4540174D01*
X5896491Y-4540174D02*
X5906015Y-4559222D01*
X5906015Y-4559222D02*
X5906015Y-4663984D01*
X6296491Y-4454460D02*
X6125063Y-4711603D01*
X6553634Y-4463984D02*
X6572682Y-4463984D01*
X6572682Y-4463984D02*
X6591729Y-4473508D01*
X6591729Y-4473508D02*
X6601253Y-4483031D01*
X6601253Y-4483031D02*
X6610777Y-4502079D01*
X6610777Y-4502079D02*
X6620301Y-4540174D01*
X6620301Y-4540174D02*
X6620301Y-4587793D01*
X6620301Y-4587793D02*
X6610777Y-4625889D01*
X6610777Y-4625889D02*
X6601253Y-4644936D01*
X6601253Y-4644936D02*
X6591729Y-4654460D01*
X6591729Y-4654460D02*
X6572682Y-4663984D01*
X6572682Y-4663984D02*
X6553634Y-4663984D01*
X6553634Y-4663984D02*
X6534586Y-4654460D01*
X6534586Y-4654460D02*
X6525063Y-4644936D01*
X6525063Y-4644936D02*
X6515539Y-4625889D01*
X6515539Y-4625889D02*
X6506015Y-4587793D01*
X6506015Y-4587793D02*
X6506015Y-4540174D01*
X6506015Y-4540174D02*
X6515539Y-4502079D01*
X6515539Y-4502079D02*
X6525063Y-4483031D01*
X6525063Y-4483031D02*
X6534586Y-4473508D01*
X6534586Y-4473508D02*
X6553634Y-4463984D01*
X6715539Y-4654460D02*
X6715539Y-4663984D01*
X6715539Y-4663984D02*
X6706015Y-4683031D01*
X6706015Y-4683031D02*
X6696491Y-4692555D01*
X6839348Y-4463984D02*
X6858396Y-4463984D01*
X6858396Y-4463984D02*
X6877444Y-4473508D01*
X6877444Y-4473508D02*
X6886967Y-4483031D01*
X6886967Y-4483031D02*
X6896491Y-4502079D01*
X6896491Y-4502079D02*
X6906015Y-4540174D01*
X6906015Y-4540174D02*
X6906015Y-4587793D01*
X6906015Y-4587793D02*
X6896491Y-4625889D01*
X6896491Y-4625889D02*
X6886967Y-4644936D01*
X6886967Y-4644936D02*
X6877444Y-4654460D01*
X6877444Y-4654460D02*
X6858396Y-4663984D01*
X6858396Y-4663984D02*
X6839348Y-4663984D01*
X6839348Y-4663984D02*
X6820301Y-4654460D01*
X6820301Y-4654460D02*
X6810777Y-4644936D01*
X6810777Y-4644936D02*
X6801253Y-4625889D01*
X6801253Y-4625889D02*
X6791729Y-4587793D01*
X6791729Y-4587793D02*
X6791729Y-4540174D01*
X6791729Y-4540174D02*
X6801253Y-4502079D01*
X6801253Y-4502079D02*
X6810777Y-4483031D01*
X6810777Y-4483031D02*
X6820301Y-4473508D01*
X6820301Y-4473508D02*
X6839348Y-4463984D01*
X6972682Y-4463984D02*
X7096491Y-4463984D01*
X7096491Y-4463984D02*
X7029825Y-4540174D01*
X7029825Y-4540174D02*
X7058396Y-4540174D01*
X7058396Y-4540174D02*
X7077444Y-4549698D01*
X7077444Y-4549698D02*
X7086967Y-4559222D01*
X7086967Y-4559222D02*
X7096491Y-4578270D01*
X7096491Y-4578270D02*
X7096491Y-4625889D01*
X7096491Y-4625889D02*
X7086967Y-4644936D01*
X7086967Y-4644936D02*
X7077444Y-4654460D01*
X7077444Y-4654460D02*
X7058396Y-4663984D01*
X7058396Y-4663984D02*
X7001253Y-4663984D01*
X7001253Y-4663984D02*
X6982206Y-4654460D01*
X6982206Y-4654460D02*
X6972682Y-4644936D01*
X7191729Y-4663984D02*
X7229825Y-4663984D01*
X7229825Y-4663984D02*
X7248872Y-4654460D01*
X7248872Y-4654460D02*
X7258396Y-4644936D01*
X7258396Y-4644936D02*
X7277444Y-4616365D01*
X7277444Y-4616365D02*
X7286967Y-4578270D01*
X7286967Y-4578270D02*
X7286967Y-4502079D01*
X7286967Y-4502079D02*
X7277444Y-4483031D01*
X7277444Y-4483031D02*
X7267920Y-4473508D01*
X7267920Y-4473508D02*
X7248872Y-4463984D01*
X7248872Y-4463984D02*
X7210777Y-4463984D01*
X7210777Y-4463984D02*
X7191729Y-4473508D01*
X7191729Y-4473508D02*
X7182206Y-4483031D01*
X7182206Y-4483031D02*
X7172682Y-4502079D01*
X7172682Y-4502079D02*
X7172682Y-4549698D01*
X7172682Y-4549698D02*
X7182206Y-4568746D01*
X7182206Y-4568746D02*
X7191729Y-4578270D01*
X7191729Y-4578270D02*
X7210777Y-4587793D01*
X7210777Y-4587793D02*
X7248872Y-4587793D01*
X7248872Y-4587793D02*
X7267920Y-4578270D01*
X7267920Y-4578270D02*
X7277444Y-4568746D01*
X7277444Y-4568746D02*
X7286967Y-4549698D01*
X7458396Y-4530650D02*
X7458396Y-4663984D01*
X7410777Y-4454460D02*
X7363158Y-4597317D01*
X7363158Y-4597317D02*
X7486967Y-4597317D01*
X7553634Y-4463984D02*
X7553634Y-4502079D01*
X7629825Y-4463984D02*
X7629825Y-4502079D01*
X7925063Y-4740174D02*
X7915539Y-4730650D01*
X7915539Y-4730650D02*
X7896491Y-4702079D01*
X7896491Y-4702079D02*
X7886968Y-4683031D01*
X7886968Y-4683031D02*
X7877444Y-4654460D01*
X7877444Y-4654460D02*
X7867920Y-4606841D01*
X7867920Y-4606841D02*
X7867920Y-4568746D01*
X7867920Y-4568746D02*
X7877444Y-4521127D01*
X7877444Y-4521127D02*
X7886968Y-4492555D01*
X7886968Y-4492555D02*
X7896491Y-4473508D01*
X7896491Y-4473508D02*
X7915539Y-4444936D01*
X7915539Y-4444936D02*
X7925063Y-4435412D01*
X8086968Y-4463984D02*
X8048872Y-4463984D01*
X8048872Y-4463984D02*
X8029825Y-4473508D01*
X8029825Y-4473508D02*
X8020301Y-4483031D01*
X8020301Y-4483031D02*
X8001253Y-4511603D01*
X8001253Y-4511603D02*
X7991729Y-4549698D01*
X7991729Y-4549698D02*
X7991729Y-4625889D01*
X7991729Y-4625889D02*
X8001253Y-4644936D01*
X8001253Y-4644936D02*
X8010777Y-4654460D01*
X8010777Y-4654460D02*
X8029825Y-4663984D01*
X8029825Y-4663984D02*
X8067920Y-4663984D01*
X8067920Y-4663984D02*
X8086968Y-4654460D01*
X8086968Y-4654460D02*
X8096491Y-4644936D01*
X8096491Y-4644936D02*
X8106015Y-4625889D01*
X8106015Y-4625889D02*
X8106015Y-4578270D01*
X8106015Y-4578270D02*
X8096491Y-4559222D01*
X8096491Y-4559222D02*
X8086968Y-4549698D01*
X8086968Y-4549698D02*
X8067920Y-4540174D01*
X8067920Y-4540174D02*
X8029825Y-4540174D01*
X8029825Y-4540174D02*
X8010777Y-4549698D01*
X8010777Y-4549698D02*
X8001253Y-4559222D01*
X8001253Y-4559222D02*
X7991729Y-4578270D01*
X8344110Y-4663984D02*
X8344110Y-4463984D01*
X8429825Y-4663984D02*
X8429825Y-4559222D01*
X8429825Y-4559222D02*
X8420301Y-4540174D01*
X8420301Y-4540174D02*
X8401253Y-4530650D01*
X8401253Y-4530650D02*
X8372682Y-4530650D01*
X8372682Y-4530650D02*
X8353634Y-4540174D01*
X8353634Y-4540174D02*
X8344110Y-4549698D01*
X8553634Y-4663984D02*
X8534587Y-4654460D01*
X8534587Y-4654460D02*
X8525063Y-4644936D01*
X8525063Y-4644936D02*
X8515539Y-4625889D01*
X8515539Y-4625889D02*
X8515539Y-4568746D01*
X8515539Y-4568746D02*
X8525063Y-4549698D01*
X8525063Y-4549698D02*
X8534587Y-4540174D01*
X8534587Y-4540174D02*
X8553634Y-4530650D01*
X8553634Y-4530650D02*
X8582206Y-4530650D01*
X8582206Y-4530650D02*
X8601253Y-4540174D01*
X8601253Y-4540174D02*
X8610777Y-4549698D01*
X8610777Y-4549698D02*
X8620301Y-4568746D01*
X8620301Y-4568746D02*
X8620301Y-4625889D01*
X8620301Y-4625889D02*
X8610777Y-4644936D01*
X8610777Y-4644936D02*
X8601253Y-4654460D01*
X8601253Y-4654460D02*
X8582206Y-4663984D01*
X8582206Y-4663984D02*
X8553634Y-4663984D01*
X8734587Y-4663984D02*
X8715539Y-4654460D01*
X8715539Y-4654460D02*
X8706015Y-4635412D01*
X8706015Y-4635412D02*
X8706015Y-4463984D01*
X8886968Y-4654460D02*
X8867920Y-4663984D01*
X8867920Y-4663984D02*
X8829825Y-4663984D01*
X8829825Y-4663984D02*
X8810777Y-4654460D01*
X8810777Y-4654460D02*
X8801253Y-4635412D01*
X8801253Y-4635412D02*
X8801253Y-4559222D01*
X8801253Y-4559222D02*
X8810777Y-4540174D01*
X8810777Y-4540174D02*
X8829825Y-4530650D01*
X8829825Y-4530650D02*
X8867920Y-4530650D01*
X8867920Y-4530650D02*
X8886968Y-4540174D01*
X8886968Y-4540174D02*
X8896492Y-4559222D01*
X8896492Y-4559222D02*
X8896492Y-4578270D01*
X8896492Y-4578270D02*
X8801253Y-4597317D01*
X8972682Y-4654460D02*
X8991730Y-4663984D01*
X8991730Y-4663984D02*
X9029825Y-4663984D01*
X9029825Y-4663984D02*
X9048873Y-4654460D01*
X9048873Y-4654460D02*
X9058396Y-4635412D01*
X9058396Y-4635412D02*
X9058396Y-4625889D01*
X9058396Y-4625889D02*
X9048873Y-4606841D01*
X9048873Y-4606841D02*
X9029825Y-4597317D01*
X9029825Y-4597317D02*
X9001253Y-4597317D01*
X9001253Y-4597317D02*
X8982206Y-4587793D01*
X8982206Y-4587793D02*
X8972682Y-4568746D01*
X8972682Y-4568746D02*
X8972682Y-4559222D01*
X8972682Y-4559222D02*
X8982206Y-4540174D01*
X8982206Y-4540174D02*
X9001253Y-4530650D01*
X9001253Y-4530650D02*
X9029825Y-4530650D01*
X9029825Y-4530650D02*
X9048873Y-4540174D01*
X9125063Y-4740174D02*
X9134587Y-4730650D01*
X9134587Y-4730650D02*
X9153634Y-4702079D01*
X9153634Y-4702079D02*
X9163158Y-4683031D01*
X9163158Y-4683031D02*
X9172682Y-4654460D01*
X9172682Y-4654460D02*
X9182206Y-4606841D01*
X9182206Y-4606841D02*
X9182206Y-4568746D01*
X9182206Y-4568746D02*
X9172682Y-4521127D01*
X9172682Y-4521127D02*
X9163158Y-4492555D01*
X9163158Y-4492555D02*
X9153634Y-4473508D01*
X9153634Y-4473508D02*
X9134587Y-4444936D01*
X9134587Y-4444936D02*
X9125063Y-4435412D01*
D13*
X4350000Y-4836500D02*
G75*
G02*
X4170000Y-4836500I-90000J0D01*
G01*
X4170000Y-4836500D02*
G75*
G02*
X4350000Y-4836500I90000J0D01*
G01*
D11*
X4715539Y-4927984D02*
X4601253Y-4927984D01*
X4658396Y-4927984D02*
X4658396Y-4727984D01*
X4658396Y-4727984D02*
X4639348Y-4756555D01*
X4639348Y-4756555D02*
X4620301Y-4775603D01*
X4620301Y-4775603D02*
X4601253Y-4785127D01*
X4810777Y-4918460D02*
X4810777Y-4927984D01*
X4810777Y-4927984D02*
X4801253Y-4947031D01*
X4801253Y-4947031D02*
X4791729Y-4956555D01*
X4925063Y-4813698D02*
X4906015Y-4804174D01*
X4906015Y-4804174D02*
X4896491Y-4794650D01*
X4896491Y-4794650D02*
X4886967Y-4775603D01*
X4886967Y-4775603D02*
X4886967Y-4766079D01*
X4886967Y-4766079D02*
X4896491Y-4747031D01*
X4896491Y-4747031D02*
X4906015Y-4737508D01*
X4906015Y-4737508D02*
X4925063Y-4727984D01*
X4925063Y-4727984D02*
X4963158Y-4727984D01*
X4963158Y-4727984D02*
X4982205Y-4737508D01*
X4982205Y-4737508D02*
X4991729Y-4747031D01*
X4991729Y-4747031D02*
X5001253Y-4766079D01*
X5001253Y-4766079D02*
X5001253Y-4775603D01*
X5001253Y-4775603D02*
X4991729Y-4794650D01*
X4991729Y-4794650D02*
X4982205Y-4804174D01*
X4982205Y-4804174D02*
X4963158Y-4813698D01*
X4963158Y-4813698D02*
X4925063Y-4813698D01*
X4925063Y-4813698D02*
X4906015Y-4823222D01*
X4906015Y-4823222D02*
X4896491Y-4832746D01*
X4896491Y-4832746D02*
X4886967Y-4851793D01*
X4886967Y-4851793D02*
X4886967Y-4889889D01*
X4886967Y-4889889D02*
X4896491Y-4908936D01*
X4896491Y-4908936D02*
X4906015Y-4918460D01*
X4906015Y-4918460D02*
X4925063Y-4927984D01*
X4925063Y-4927984D02*
X4963158Y-4927984D01*
X4963158Y-4927984D02*
X4982205Y-4918460D01*
X4982205Y-4918460D02*
X4991729Y-4908936D01*
X4991729Y-4908936D02*
X5001253Y-4889889D01*
X5001253Y-4889889D02*
X5001253Y-4851793D01*
X5001253Y-4851793D02*
X4991729Y-4832746D01*
X4991729Y-4832746D02*
X4982205Y-4823222D01*
X4982205Y-4823222D02*
X4963158Y-4813698D01*
X5125063Y-4727984D02*
X5144110Y-4727984D01*
X5144110Y-4727984D02*
X5163158Y-4737508D01*
X5163158Y-4737508D02*
X5172682Y-4747031D01*
X5172682Y-4747031D02*
X5182205Y-4766079D01*
X5182205Y-4766079D02*
X5191729Y-4804174D01*
X5191729Y-4804174D02*
X5191729Y-4851793D01*
X5191729Y-4851793D02*
X5182205Y-4889889D01*
X5182205Y-4889889D02*
X5172682Y-4908936D01*
X5172682Y-4908936D02*
X5163158Y-4918460D01*
X5163158Y-4918460D02*
X5144110Y-4927984D01*
X5144110Y-4927984D02*
X5125063Y-4927984D01*
X5125063Y-4927984D02*
X5106015Y-4918460D01*
X5106015Y-4918460D02*
X5096491Y-4908936D01*
X5096491Y-4908936D02*
X5086967Y-4889889D01*
X5086967Y-4889889D02*
X5077444Y-4851793D01*
X5077444Y-4851793D02*
X5077444Y-4804174D01*
X5077444Y-4804174D02*
X5086967Y-4766079D01*
X5086967Y-4766079D02*
X5096491Y-4747031D01*
X5096491Y-4747031D02*
X5106015Y-4737508D01*
X5106015Y-4737508D02*
X5125063Y-4727984D01*
X5315539Y-4727984D02*
X5334586Y-4727984D01*
X5334586Y-4727984D02*
X5353634Y-4737508D01*
X5353634Y-4737508D02*
X5363158Y-4747031D01*
X5363158Y-4747031D02*
X5372682Y-4766079D01*
X5372682Y-4766079D02*
X5382205Y-4804174D01*
X5382205Y-4804174D02*
X5382205Y-4851793D01*
X5382205Y-4851793D02*
X5372682Y-4889889D01*
X5372682Y-4889889D02*
X5363158Y-4908936D01*
X5363158Y-4908936D02*
X5353634Y-4918460D01*
X5353634Y-4918460D02*
X5334586Y-4927984D01*
X5334586Y-4927984D02*
X5315539Y-4927984D01*
X5315539Y-4927984D02*
X5296491Y-4918460D01*
X5296491Y-4918460D02*
X5286967Y-4908936D01*
X5286967Y-4908936D02*
X5277444Y-4889889D01*
X5277444Y-4889889D02*
X5267920Y-4851793D01*
X5267920Y-4851793D02*
X5267920Y-4804174D01*
X5267920Y-4804174D02*
X5277444Y-4766079D01*
X5277444Y-4766079D02*
X5286967Y-4747031D01*
X5286967Y-4747031D02*
X5296491Y-4737508D01*
X5296491Y-4737508D02*
X5315539Y-4727984D01*
X5467920Y-4927984D02*
X5467920Y-4794650D01*
X5467920Y-4813698D02*
X5477444Y-4804174D01*
X5477444Y-4804174D02*
X5496491Y-4794650D01*
X5496491Y-4794650D02*
X5525063Y-4794650D01*
X5525063Y-4794650D02*
X5544110Y-4804174D01*
X5544110Y-4804174D02*
X5553634Y-4823222D01*
X5553634Y-4823222D02*
X5553634Y-4927984D01*
X5553634Y-4823222D02*
X5563158Y-4804174D01*
X5563158Y-4804174D02*
X5582205Y-4794650D01*
X5582205Y-4794650D02*
X5610777Y-4794650D01*
X5610777Y-4794650D02*
X5629824Y-4804174D01*
X5629824Y-4804174D02*
X5639348Y-4823222D01*
X5639348Y-4823222D02*
X5639348Y-4927984D01*
X5734586Y-4927984D02*
X5734586Y-4794650D01*
X5734586Y-4813698D02*
X5744110Y-4804174D01*
X5744110Y-4804174D02*
X5763158Y-4794650D01*
X5763158Y-4794650D02*
X5791729Y-4794650D01*
X5791729Y-4794650D02*
X5810777Y-4804174D01*
X5810777Y-4804174D02*
X5820301Y-4823222D01*
X5820301Y-4823222D02*
X5820301Y-4927984D01*
X5820301Y-4823222D02*
X5829824Y-4804174D01*
X5829824Y-4804174D02*
X5848872Y-4794650D01*
X5848872Y-4794650D02*
X5877443Y-4794650D01*
X5877443Y-4794650D02*
X5896491Y-4804174D01*
X5896491Y-4804174D02*
X5906015Y-4823222D01*
X5906015Y-4823222D02*
X5906015Y-4927984D01*
X6296491Y-4718460D02*
X6125063Y-4975603D01*
X6553634Y-4727984D02*
X6572682Y-4727984D01*
X6572682Y-4727984D02*
X6591729Y-4737508D01*
X6591729Y-4737508D02*
X6601253Y-4747031D01*
X6601253Y-4747031D02*
X6610777Y-4766079D01*
X6610777Y-4766079D02*
X6620301Y-4804174D01*
X6620301Y-4804174D02*
X6620301Y-4851793D01*
X6620301Y-4851793D02*
X6610777Y-4889889D01*
X6610777Y-4889889D02*
X6601253Y-4908936D01*
X6601253Y-4908936D02*
X6591729Y-4918460D01*
X6591729Y-4918460D02*
X6572682Y-4927984D01*
X6572682Y-4927984D02*
X6553634Y-4927984D01*
X6553634Y-4927984D02*
X6534586Y-4918460D01*
X6534586Y-4918460D02*
X6525063Y-4908936D01*
X6525063Y-4908936D02*
X6515539Y-4889889D01*
X6515539Y-4889889D02*
X6506015Y-4851793D01*
X6506015Y-4851793D02*
X6506015Y-4804174D01*
X6506015Y-4804174D02*
X6515539Y-4766079D01*
X6515539Y-4766079D02*
X6525063Y-4747031D01*
X6525063Y-4747031D02*
X6534586Y-4737508D01*
X6534586Y-4737508D02*
X6553634Y-4727984D01*
X6715539Y-4918460D02*
X6715539Y-4927984D01*
X6715539Y-4927984D02*
X6706015Y-4947031D01*
X6706015Y-4947031D02*
X6696491Y-4956555D01*
X6839348Y-4727984D02*
X6858396Y-4727984D01*
X6858396Y-4727984D02*
X6877444Y-4737508D01*
X6877444Y-4737508D02*
X6886967Y-4747031D01*
X6886967Y-4747031D02*
X6896491Y-4766079D01*
X6896491Y-4766079D02*
X6906015Y-4804174D01*
X6906015Y-4804174D02*
X6906015Y-4851793D01*
X6906015Y-4851793D02*
X6896491Y-4889889D01*
X6896491Y-4889889D02*
X6886967Y-4908936D01*
X6886967Y-4908936D02*
X6877444Y-4918460D01*
X6877444Y-4918460D02*
X6858396Y-4927984D01*
X6858396Y-4927984D02*
X6839348Y-4927984D01*
X6839348Y-4927984D02*
X6820301Y-4918460D01*
X6820301Y-4918460D02*
X6810777Y-4908936D01*
X6810777Y-4908936D02*
X6801253Y-4889889D01*
X6801253Y-4889889D02*
X6791729Y-4851793D01*
X6791729Y-4851793D02*
X6791729Y-4804174D01*
X6791729Y-4804174D02*
X6801253Y-4766079D01*
X6801253Y-4766079D02*
X6810777Y-4747031D01*
X6810777Y-4747031D02*
X6820301Y-4737508D01*
X6820301Y-4737508D02*
X6839348Y-4727984D01*
X6972682Y-4727984D02*
X7106015Y-4727984D01*
X7106015Y-4727984D02*
X7020301Y-4927984D01*
X7220301Y-4727984D02*
X7239348Y-4727984D01*
X7239348Y-4727984D02*
X7258396Y-4737508D01*
X7258396Y-4737508D02*
X7267920Y-4747031D01*
X7267920Y-4747031D02*
X7277444Y-4766079D01*
X7277444Y-4766079D02*
X7286967Y-4804174D01*
X7286967Y-4804174D02*
X7286967Y-4851793D01*
X7286967Y-4851793D02*
X7277444Y-4889889D01*
X7277444Y-4889889D02*
X7267920Y-4908936D01*
X7267920Y-4908936D02*
X7258396Y-4918460D01*
X7258396Y-4918460D02*
X7239348Y-4927984D01*
X7239348Y-4927984D02*
X7220301Y-4927984D01*
X7220301Y-4927984D02*
X7201253Y-4918460D01*
X7201253Y-4918460D02*
X7191729Y-4908936D01*
X7191729Y-4908936D02*
X7182206Y-4889889D01*
X7182206Y-4889889D02*
X7172682Y-4851793D01*
X7172682Y-4851793D02*
X7172682Y-4804174D01*
X7172682Y-4804174D02*
X7182206Y-4766079D01*
X7182206Y-4766079D02*
X7191729Y-4747031D01*
X7191729Y-4747031D02*
X7201253Y-4737508D01*
X7201253Y-4737508D02*
X7220301Y-4727984D01*
X7382206Y-4927984D02*
X7420301Y-4927984D01*
X7420301Y-4927984D02*
X7439348Y-4918460D01*
X7439348Y-4918460D02*
X7448872Y-4908936D01*
X7448872Y-4908936D02*
X7467920Y-4880365D01*
X7467920Y-4880365D02*
X7477444Y-4842270D01*
X7477444Y-4842270D02*
X7477444Y-4766079D01*
X7477444Y-4766079D02*
X7467920Y-4747031D01*
X7467920Y-4747031D02*
X7458396Y-4737508D01*
X7458396Y-4737508D02*
X7439348Y-4727984D01*
X7439348Y-4727984D02*
X7401253Y-4727984D01*
X7401253Y-4727984D02*
X7382206Y-4737508D01*
X7382206Y-4737508D02*
X7372682Y-4747031D01*
X7372682Y-4747031D02*
X7363158Y-4766079D01*
X7363158Y-4766079D02*
X7363158Y-4813698D01*
X7363158Y-4813698D02*
X7372682Y-4832746D01*
X7372682Y-4832746D02*
X7382206Y-4842270D01*
X7382206Y-4842270D02*
X7401253Y-4851793D01*
X7401253Y-4851793D02*
X7439348Y-4851793D01*
X7439348Y-4851793D02*
X7458396Y-4842270D01*
X7458396Y-4842270D02*
X7467920Y-4832746D01*
X7467920Y-4832746D02*
X7477444Y-4813698D01*
X7553634Y-4727984D02*
X7553634Y-4766079D01*
X7629825Y-4727984D02*
X7629825Y-4766079D01*
X7925063Y-5004174D02*
X7915539Y-4994650D01*
X7915539Y-4994650D02*
X7896491Y-4966079D01*
X7896491Y-4966079D02*
X7886968Y-4947031D01*
X7886968Y-4947031D02*
X7877444Y-4918460D01*
X7877444Y-4918460D02*
X7867920Y-4870841D01*
X7867920Y-4870841D02*
X7867920Y-4832746D01*
X7867920Y-4832746D02*
X7877444Y-4785127D01*
X7877444Y-4785127D02*
X7886968Y-4756555D01*
X7886968Y-4756555D02*
X7896491Y-4737508D01*
X7896491Y-4737508D02*
X7915539Y-4708936D01*
X7915539Y-4708936D02*
X7925063Y-4699412D01*
X8086968Y-4727984D02*
X8048872Y-4727984D01*
X8048872Y-4727984D02*
X8029825Y-4737508D01*
X8029825Y-4737508D02*
X8020301Y-4747031D01*
X8020301Y-4747031D02*
X8001253Y-4775603D01*
X8001253Y-4775603D02*
X7991729Y-4813698D01*
X7991729Y-4813698D02*
X7991729Y-4889889D01*
X7991729Y-4889889D02*
X8001253Y-4908936D01*
X8001253Y-4908936D02*
X8010777Y-4918460D01*
X8010777Y-4918460D02*
X8029825Y-4927984D01*
X8029825Y-4927984D02*
X8067920Y-4927984D01*
X8067920Y-4927984D02*
X8086968Y-4918460D01*
X8086968Y-4918460D02*
X8096491Y-4908936D01*
X8096491Y-4908936D02*
X8106015Y-4889889D01*
X8106015Y-4889889D02*
X8106015Y-4842270D01*
X8106015Y-4842270D02*
X8096491Y-4823222D01*
X8096491Y-4823222D02*
X8086968Y-4813698D01*
X8086968Y-4813698D02*
X8067920Y-4804174D01*
X8067920Y-4804174D02*
X8029825Y-4804174D01*
X8029825Y-4804174D02*
X8010777Y-4813698D01*
X8010777Y-4813698D02*
X8001253Y-4823222D01*
X8001253Y-4823222D02*
X7991729Y-4842270D01*
X8344110Y-4927984D02*
X8344110Y-4727984D01*
X8429825Y-4927984D02*
X8429825Y-4823222D01*
X8429825Y-4823222D02*
X8420301Y-4804174D01*
X8420301Y-4804174D02*
X8401253Y-4794650D01*
X8401253Y-4794650D02*
X8372682Y-4794650D01*
X8372682Y-4794650D02*
X8353634Y-4804174D01*
X8353634Y-4804174D02*
X8344110Y-4813698D01*
X8553634Y-4927984D02*
X8534587Y-4918460D01*
X8534587Y-4918460D02*
X8525063Y-4908936D01*
X8525063Y-4908936D02*
X8515539Y-4889889D01*
X8515539Y-4889889D02*
X8515539Y-4832746D01*
X8515539Y-4832746D02*
X8525063Y-4813698D01*
X8525063Y-4813698D02*
X8534587Y-4804174D01*
X8534587Y-4804174D02*
X8553634Y-4794650D01*
X8553634Y-4794650D02*
X8582206Y-4794650D01*
X8582206Y-4794650D02*
X8601253Y-4804174D01*
X8601253Y-4804174D02*
X8610777Y-4813698D01*
X8610777Y-4813698D02*
X8620301Y-4832746D01*
X8620301Y-4832746D02*
X8620301Y-4889889D01*
X8620301Y-4889889D02*
X8610777Y-4908936D01*
X8610777Y-4908936D02*
X8601253Y-4918460D01*
X8601253Y-4918460D02*
X8582206Y-4927984D01*
X8582206Y-4927984D02*
X8553634Y-4927984D01*
X8734587Y-4927984D02*
X8715539Y-4918460D01*
X8715539Y-4918460D02*
X8706015Y-4899412D01*
X8706015Y-4899412D02*
X8706015Y-4727984D01*
X8886968Y-4918460D02*
X8867920Y-4927984D01*
X8867920Y-4927984D02*
X8829825Y-4927984D01*
X8829825Y-4927984D02*
X8810777Y-4918460D01*
X8810777Y-4918460D02*
X8801253Y-4899412D01*
X8801253Y-4899412D02*
X8801253Y-4823222D01*
X8801253Y-4823222D02*
X8810777Y-4804174D01*
X8810777Y-4804174D02*
X8829825Y-4794650D01*
X8829825Y-4794650D02*
X8867920Y-4794650D01*
X8867920Y-4794650D02*
X8886968Y-4804174D01*
X8886968Y-4804174D02*
X8896492Y-4823222D01*
X8896492Y-4823222D02*
X8896492Y-4842270D01*
X8896492Y-4842270D02*
X8801253Y-4861317D01*
X8972682Y-4918460D02*
X8991730Y-4927984D01*
X8991730Y-4927984D02*
X9029825Y-4927984D01*
X9029825Y-4927984D02*
X9048873Y-4918460D01*
X9048873Y-4918460D02*
X9058396Y-4899412D01*
X9058396Y-4899412D02*
X9058396Y-4889889D01*
X9058396Y-4889889D02*
X9048873Y-4870841D01*
X9048873Y-4870841D02*
X9029825Y-4861317D01*
X9029825Y-4861317D02*
X9001253Y-4861317D01*
X9001253Y-4861317D02*
X8982206Y-4851793D01*
X8982206Y-4851793D02*
X8972682Y-4832746D01*
X8972682Y-4832746D02*
X8972682Y-4823222D01*
X8972682Y-4823222D02*
X8982206Y-4804174D01*
X8982206Y-4804174D02*
X9001253Y-4794650D01*
X9001253Y-4794650D02*
X9029825Y-4794650D01*
X9029825Y-4794650D02*
X9048873Y-4804174D01*
X9125063Y-5004174D02*
X9134587Y-4994650D01*
X9134587Y-4994650D02*
X9153634Y-4966079D01*
X9153634Y-4966079D02*
X9163158Y-4947031D01*
X9163158Y-4947031D02*
X9172682Y-4918460D01*
X9172682Y-4918460D02*
X9182206Y-4870841D01*
X9182206Y-4870841D02*
X9182206Y-4832746D01*
X9182206Y-4832746D02*
X9172682Y-4785127D01*
X9172682Y-4785127D02*
X9163158Y-4756555D01*
X9163158Y-4756555D02*
X9153634Y-4737508D01*
X9153634Y-4737508D02*
X9134587Y-4708936D01*
X9134587Y-4708936D02*
X9125063Y-4699412D01*
M02*
