%TF.GenerationSoftware,KiCad,Pcbnew,10.0.1*%
%TF.CreationDate,2026-06-24T20:42:14+02:00*%
%TF.ProjectId,Converter_DIP_SSOP_10,436f6e76-6572-4746-9572-5f4449505f53,1*%
%TF.SameCoordinates,Original*%
%TF.FileFunction,Drillmap*%
%TF.FilePolarity,Positive*%
%FSLAX45Y45*%
G04 Gerber Fmt 4.5, Leading zero omitted, Abs format (unit mm)*
G04 Created by KiCad (PCBNEW 10.0.1) date 2026-06-24 20:42:14*
%MOMM*%
%LPD*%
G01*
G04 APERTURE LIST*
%ADD10C,0.050000*%
%ADD11C,0.200000*%
G04 APERTURE END LIST*
D10*
X4855097Y-2855000D02*
X5905097Y-2855000D01*
X5905097Y-4155000D01*
X4855097Y-4155000D01*
X4855097Y-2855000D01*
D11*
X5113374Y-4468984D02*
X5113374Y-4268984D01*
X5113374Y-4268984D02*
X5160993Y-4268984D01*
X5160993Y-4268984D02*
X5189565Y-4278508D01*
X5189565Y-4278508D02*
X5208612Y-4297555D01*
X5208612Y-4297555D02*
X5218136Y-4316603D01*
X5218136Y-4316603D02*
X5227660Y-4354698D01*
X5227660Y-4354698D02*
X5227660Y-4383270D01*
X5227660Y-4383270D02*
X5218136Y-4421365D01*
X5218136Y-4421365D02*
X5208612Y-4440412D01*
X5208612Y-4440412D02*
X5189565Y-4459460D01*
X5189565Y-4459460D02*
X5160993Y-4468984D01*
X5160993Y-4468984D02*
X5113374Y-4468984D01*
X5313374Y-4468984D02*
X5313374Y-4335650D01*
X5313374Y-4373746D02*
X5322898Y-4354698D01*
X5322898Y-4354698D02*
X5332422Y-4345174D01*
X5332422Y-4345174D02*
X5351469Y-4335650D01*
X5351469Y-4335650D02*
X5370517Y-4335650D01*
X5437184Y-4468984D02*
X5437184Y-4335650D01*
X5437184Y-4268984D02*
X5427660Y-4278508D01*
X5427660Y-4278508D02*
X5437184Y-4288031D01*
X5437184Y-4288031D02*
X5446708Y-4278508D01*
X5446708Y-4278508D02*
X5437184Y-4268984D01*
X5437184Y-4268984D02*
X5437184Y-4288031D01*
X5560993Y-4468984D02*
X5541946Y-4459460D01*
X5541946Y-4459460D02*
X5532422Y-4440412D01*
X5532422Y-4440412D02*
X5532422Y-4268984D01*
X5665755Y-4468984D02*
X5646707Y-4459460D01*
X5646707Y-4459460D02*
X5637184Y-4440412D01*
X5637184Y-4440412D02*
X5637184Y-4268984D01*
X5894327Y-4468984D02*
X5894327Y-4268984D01*
X5894327Y-4268984D02*
X5960993Y-4411841D01*
X5960993Y-4411841D02*
X6027660Y-4268984D01*
X6027660Y-4268984D02*
X6027660Y-4468984D01*
X6208612Y-4468984D02*
X6208612Y-4364222D01*
X6208612Y-4364222D02*
X6199088Y-4345174D01*
X6199088Y-4345174D02*
X6180041Y-4335650D01*
X6180041Y-4335650D02*
X6141946Y-4335650D01*
X6141946Y-4335650D02*
X6122898Y-4345174D01*
X6208612Y-4459460D02*
X6189565Y-4468984D01*
X6189565Y-4468984D02*
X6141946Y-4468984D01*
X6141946Y-4468984D02*
X6122898Y-4459460D01*
X6122898Y-4459460D02*
X6113374Y-4440412D01*
X6113374Y-4440412D02*
X6113374Y-4421365D01*
X6113374Y-4421365D02*
X6122898Y-4402317D01*
X6122898Y-4402317D02*
X6141946Y-4392793D01*
X6141946Y-4392793D02*
X6189565Y-4392793D01*
X6189565Y-4392793D02*
X6208612Y-4383270D01*
X6303850Y-4335650D02*
X6303850Y-4535650D01*
X6303850Y-4345174D02*
X6322898Y-4335650D01*
X6322898Y-4335650D02*
X6360993Y-4335650D01*
X6360993Y-4335650D02*
X6380041Y-4345174D01*
X6380041Y-4345174D02*
X6389565Y-4354698D01*
X6389565Y-4354698D02*
X6399088Y-4373746D01*
X6399088Y-4373746D02*
X6399088Y-4430889D01*
X6399088Y-4430889D02*
X6389565Y-4449936D01*
X6389565Y-4449936D02*
X6380041Y-4459460D01*
X6380041Y-4459460D02*
X6360993Y-4468984D01*
X6360993Y-4468984D02*
X6322898Y-4468984D01*
X6322898Y-4468984D02*
X6303850Y-4459460D01*
X6484803Y-4449936D02*
X6494327Y-4459460D01*
X6494327Y-4459460D02*
X6484803Y-4468984D01*
X6484803Y-4468984D02*
X6475279Y-4459460D01*
X6475279Y-4459460D02*
X6484803Y-4449936D01*
X6484803Y-4449936D02*
X6484803Y-4468984D01*
X6484803Y-4345174D02*
X6494327Y-4354698D01*
X6494327Y-4354698D02*
X6484803Y-4364222D01*
X6484803Y-4364222D02*
X6475279Y-4354698D01*
X6475279Y-4354698D02*
X6484803Y-4345174D01*
X6484803Y-4345174D02*
X6484803Y-4364222D01*
M02*
