%TF.GenerationSoftware,KiCad,Pcbnew,10.0.1*%
%TF.CreationDate,2026-06-24T21:09:15+02:00*%
%TF.ProjectId,Converter_DIP_SOIC_8,436f6e76-6572-4746-9572-5f4449505f53,1*%
%TF.SameCoordinates,Original*%
%TF.FileFunction,Drillmap*%
%TF.FilePolarity,Positive*%
%FSLAX45Y45*%
G04 Gerber Fmt 4.5, Leading zero omitted, Abs format (unit mm)*
G04 Created by KiCad (PCBNEW 10.0.1) date 2026-06-24 21:09:15*
%MOMM*%
%LPD*%
G01*
G04 APERTURE LIST*
%ADD10C,0.050000*%
%ADD11C,0.200000*%
G04 APERTURE END LIST*
D10*
X4855097Y-2855000D02*
X5905097Y-2855000D01*
X5905097Y-3905000D01*
X4855097Y-3905000D01*
X4855097Y-2855000D01*
D11*
X5113374Y-4218984D02*
X5113374Y-4018984D01*
X5113374Y-4018984D02*
X5160993Y-4018984D01*
X5160993Y-4018984D02*
X5189565Y-4028508D01*
X5189565Y-4028508D02*
X5208612Y-4047555D01*
X5208612Y-4047555D02*
X5218136Y-4066603D01*
X5218136Y-4066603D02*
X5227660Y-4104698D01*
X5227660Y-4104698D02*
X5227660Y-4133269D01*
X5227660Y-4133269D02*
X5218136Y-4171365D01*
X5218136Y-4171365D02*
X5208612Y-4190412D01*
X5208612Y-4190412D02*
X5189565Y-4209460D01*
X5189565Y-4209460D02*
X5160993Y-4218984D01*
X5160993Y-4218984D02*
X5113374Y-4218984D01*
X5313374Y-4218984D02*
X5313374Y-4085650D01*
X5313374Y-4123746D02*
X5322898Y-4104698D01*
X5322898Y-4104698D02*
X5332422Y-4095174D01*
X5332422Y-4095174D02*
X5351469Y-4085650D01*
X5351469Y-4085650D02*
X5370517Y-4085650D01*
X5437184Y-4218984D02*
X5437184Y-4085650D01*
X5437184Y-4018984D02*
X5427660Y-4028508D01*
X5427660Y-4028508D02*
X5437184Y-4038031D01*
X5437184Y-4038031D02*
X5446708Y-4028508D01*
X5446708Y-4028508D02*
X5437184Y-4018984D01*
X5437184Y-4018984D02*
X5437184Y-4038031D01*
X5560993Y-4218984D02*
X5541946Y-4209460D01*
X5541946Y-4209460D02*
X5532422Y-4190412D01*
X5532422Y-4190412D02*
X5532422Y-4018984D01*
X5665755Y-4218984D02*
X5646707Y-4209460D01*
X5646707Y-4209460D02*
X5637184Y-4190412D01*
X5637184Y-4190412D02*
X5637184Y-4018984D01*
X5894327Y-4218984D02*
X5894327Y-4018984D01*
X5894327Y-4018984D02*
X5960993Y-4161841D01*
X5960993Y-4161841D02*
X6027660Y-4018984D01*
X6027660Y-4018984D02*
X6027660Y-4218984D01*
X6208612Y-4218984D02*
X6208612Y-4114222D01*
X6208612Y-4114222D02*
X6199088Y-4095174D01*
X6199088Y-4095174D02*
X6180041Y-4085650D01*
X6180041Y-4085650D02*
X6141946Y-4085650D01*
X6141946Y-4085650D02*
X6122898Y-4095174D01*
X6208612Y-4209460D02*
X6189565Y-4218984D01*
X6189565Y-4218984D02*
X6141946Y-4218984D01*
X6141946Y-4218984D02*
X6122898Y-4209460D01*
X6122898Y-4209460D02*
X6113374Y-4190412D01*
X6113374Y-4190412D02*
X6113374Y-4171365D01*
X6113374Y-4171365D02*
X6122898Y-4152317D01*
X6122898Y-4152317D02*
X6141946Y-4142793D01*
X6141946Y-4142793D02*
X6189565Y-4142793D01*
X6189565Y-4142793D02*
X6208612Y-4133269D01*
X6303850Y-4085650D02*
X6303850Y-4285650D01*
X6303850Y-4095174D02*
X6322898Y-4085650D01*
X6322898Y-4085650D02*
X6360993Y-4085650D01*
X6360993Y-4085650D02*
X6380041Y-4095174D01*
X6380041Y-4095174D02*
X6389565Y-4104698D01*
X6389565Y-4104698D02*
X6399088Y-4123746D01*
X6399088Y-4123746D02*
X6399088Y-4180888D01*
X6399088Y-4180888D02*
X6389565Y-4199936D01*
X6389565Y-4199936D02*
X6380041Y-4209460D01*
X6380041Y-4209460D02*
X6360993Y-4218984D01*
X6360993Y-4218984D02*
X6322898Y-4218984D01*
X6322898Y-4218984D02*
X6303850Y-4209460D01*
X6484803Y-4199936D02*
X6494327Y-4209460D01*
X6494327Y-4209460D02*
X6484803Y-4218984D01*
X6484803Y-4218984D02*
X6475279Y-4209460D01*
X6475279Y-4209460D02*
X6484803Y-4199936D01*
X6484803Y-4199936D02*
X6484803Y-4218984D01*
X6484803Y-4095174D02*
X6494327Y-4104698D01*
X6494327Y-4104698D02*
X6484803Y-4114222D01*
X6484803Y-4114222D02*
X6475279Y-4104698D01*
X6475279Y-4104698D02*
X6484803Y-4095174D01*
X6484803Y-4095174D02*
X6484803Y-4114222D01*
M02*
